<svg width="104" height="104" viewBox="0 0 104 104" fill="none" xmlns="http://www.w3.org/2000/svg">
<rect width="104" height="104" rx="8" fill="#121212"/>
<rect width="104" height="104" rx="8" fill="white" fill-opacity="0.05"/>
<path d="M52.5422 71.2212C52.5422 69.1409 54.184 67.4718 56.2305 67.4718C58.2767 67.4718 59.9182 69.1409 59.9182 71.2212C59.9182 73.3012 58.2767 74.9706 56.2305 74.9706C54.184 74.9706 52.5422 73.3012 52.5422 71.2212ZM67.5472 71.2212C67.5472 69.1409 69.1894 67.4718 71.2356 67.4718C73.281 67.4718 74.9232 69.1409 74.9232 71.2212C74.9232 73.3012 73.281 74.9706 71.2356 74.9706C69.1894 74.9706 67.5472 73.3012 67.5472 71.2212ZM32.7628 71.2212C32.7628 69.1409 34.4042 67.4718 36.4512 67.4718C38.4967 67.4718 40.1388 69.1409 40.1388 71.2212C40.1388 73.3012 38.4967 74.9706 36.4512 74.9706C34.4042 74.9706 32.7628 73.3012 32.7628 71.2212ZM17.7576 71.2212C17.7576 69.1409 19.399 67.4718 21.4453 67.4718C23.4922 67.4718 25.1337 69.1409 25.1337 71.2212C25.1337 73.3012 23.4922 74.9706 21.4453 74.9706C19.399 74.9706 17.7576 73.3012 17.7576 71.2212ZM48.0958 64.5956H44.8877V77.718H48.0958V64.5956ZM25.1085 77.718H28.3166V64.5956H25.1085V65.6489C24.0221 64.8787 22.7085 64.4421 21.2943 64.4421C17.6059 64.4421 14.625 67.4718 14.625 71.2212C14.625 74.9963 17.6059 78 21.2943 78C22.7085 78 24.0221 77.5638 25.1085 76.7932V77.718ZM74.898 77.718H78.1061V64.5956H74.898V65.6489C73.8117 64.8787 72.4981 64.4421 71.0839 64.4421C67.3955 64.4421 64.4155 67.4718 64.4155 71.2212C64.4155 74.9963 67.3955 78 71.0839 78C72.4981 78 73.8117 77.5638 74.898 76.7932V77.718ZM79.294 73.4547C79.3945 76.0998 81.6176 77.9744 85.3312 77.9744C88.3624 77.9744 90.8632 76.639 90.8632 73.6865C90.8632 71.6318 89.7265 70.4253 87.0992 69.9115L85.053 69.5005C83.7394 69.2441 82.83 68.9867 82.83 68.1908C82.83 67.3183 83.7142 66.933 84.8257 66.933C86.4427 66.933 87.0992 67.7546 87.1496 68.7303H90.3837C90.2068 66.1621 88.1855 64.4421 84.9273 64.4421C81.5675 64.4421 79.5714 66.3162 79.5714 68.7559C79.5714 71.7351 81.9462 72.2222 83.9927 72.6075L85.685 72.9159C86.897 73.147 87.4278 73.5067 87.4278 74.2257C87.4278 74.8674 86.8217 75.5091 85.3816 75.5091C83.285 75.5091 82.6026 74.4055 82.5774 73.4547H79.294ZM40.1137 60.1278V65.6489C39.0273 64.8787 37.7137 64.4421 36.2995 64.4421C32.6111 64.4421 29.6302 67.4718 29.6302 71.2212C29.6302 74.9963 32.6111 78 36.2995 78C37.7137 78 39.0273 77.5638 40.1137 76.7932V77.718H43.3218V60.1278H40.1137ZM59.893 60.1278V65.6489C58.8063 64.8787 57.493 64.4421 56.0789 64.4421C52.3905 64.4421 49.4101 67.4718 49.4101 71.2212C49.4101 74.9963 52.3905 78 56.0789 78C57.493 78 58.8063 77.5638 59.893 76.7932V77.718H63.1011V60.1278H59.893ZM22.9609 56.2505L25.1337 60.1278H40.1137L34.177 49.7017L22.9609 56.2505ZM48.0958 63.3891V60.1278H59.893L47.3129 37.9923L36.0715 44.5403L44.8877 60.1278V63.3891H48.0958ZM64.6677 60.1278H79.673L60.2717 26L49.0564 32.5735L64.6677 60.1278Z" fill="#BDBDBD"/>
</svg>
