<svg width="104" height="104" viewBox="0 0 104 104" fill="none" xmlns="http://www.w3.org/2000/svg">
<rect width="104" height="104" rx="8" fill="#121212"/>
<rect width="104" height="104" rx="8" fill="white" fill-opacity="0.05"/>
<path d="M63.8873 51.9998C63.8873 45.4342 58.5657 40.1121 52.0005 40.1121C45.4349 40.1121 40.1128 45.4342 40.1128 51.9998C40.1128 58.5651 45.4349 63.8875 52.0005 63.8875C58.5657 63.8875 63.8873 58.5651 63.8873 51.9998Z" fill="#BDBDBD"/>
<path d="M52 13.0001C48.2844 13.0001 44.6952 13.5307 41.291 14.5013V35.582C44.3699 33.5698 48.0462 32.3957 51.9992 32.3957C62.8254 32.3957 71.6028 41.1727 71.6028 51.9998C71.6028 62.8269 62.8254 71.6039 51.9992 71.6039C41.1721 71.6039 32.3948 62.8269 32.3948 51.9998C32.3948 51.6516 32.4047 51.3056 32.4223 50.9617L32.3948 50.9833V18.2916C20.7991 25.0503 13 37.6104 13 51.9998C13 73.5386 30.4612 90.9998 52 90.9998C73.5385 90.9998 90.9964 73.5386 90.9964 51.9998C90.9964 30.4613 73.5385 13.0001 52 13.0001Z" fill="#BDBDBD"/>
</svg>
