<svg width="104" height="104" viewBox="0 0 104 104" fill="none" xmlns="http://www.w3.org/2000/svg">
<rect width="104" height="104" rx="8" fill="#121212"/>
<rect width="104" height="104" rx="8" fill="white" fill-opacity="0.05"/>
<path d="M68.8386 44.704L61.4607 44.7869V46.7764H63.5331V59.0453H66.5174V46.7764H68.8386V44.704ZM51.4301 52.1648L48.6944 44.7869H45.793V59.0453H48.1142V50.9213L51.2643 59.0453H53.7512V44.7869H51.4301V52.1648ZM72.9006 43.875C70.5242 43.9054 68.5885 47.2849 68.5899 51.4187C68.5885 55.6216 70.5242 58.9997 72.9006 58.9624C75.2991 58.9997 77.2347 55.6216 77.2113 51.4187C77.2347 47.2849 75.2991 43.9054 72.9006 43.875ZM72.9006 56.3097C71.9403 56.2889 71.1528 54.1239 71.1597 51.4187C71.1528 48.7825 71.939 46.6162 72.9006 46.6106C73.8829 46.6162 74.6691 48.7825 74.6414 51.4187C74.6691 54.1239 73.8829 56.2889 72.9006 56.3097ZM37.5033 59.0453H43.9693V56.061H40.4876V51.999H43.9693V50.1752H40.4876V47.4396H43.9693V44.7869H37.5033V59.0453ZM33.4413 44.7869L31.7004 49.4291V44.7869H28.6332V59.0453H31.7004V52.5793L33.2755 59.0453H36.3427L33.4413 50.9213L36.4256 44.7869H33.4413ZM89.563 44.7869L87.7393 49.4291V44.7869H84.7549V59.0453H87.7393V52.5793L89.3143 59.0453H92.4644L89.563 50.9213L92.4644 44.7869H89.563ZM15.038 44.7869H18.0223V59.0453H15.038V44.7869ZM27.141 48.766C27.0581 45.392 24.9857 44.7178 23.0791 44.7869H19.5145V59.0453H22.2501V52.1648L24.8199 59.0453H27.5541L25.0672 52.4135C26.3853 51.8166 27.1093 50.6243 27.141 48.766ZM22.2501 50.9213V47.0251C23.3277 46.9975 24.5201 47.1536 24.4883 48.8489C24.5187 50.5731 23.7422 50.9862 22.2501 50.9213ZM10.8931 44.7869H6.49951V59.0453H11.3076C12.7058 59.0176 13.8981 58.0339 13.8774 57.1386V52.9937C13.8981 51.7641 12.7583 51.7116 12.4681 51.7503C12.2402 51.7116 12.2402 51.4532 12.551 51.4187C13.4311 51.3496 13.8981 50.8826 13.8774 49.9265V47.5225C13.8981 45.8576 12.3949 44.7689 10.8931 44.7869ZM11.3076 55.6465C11.3076 55.9615 11.1003 56.3497 10.6444 56.3097H9.31803V52.828H10.3957C11.0741 52.8528 11.3076 53.1637 11.3076 53.4911V55.6465ZM11.3076 49.6778C11.3076 50.0274 11.1003 50.417 10.6444 50.4239H9.31803V47.4396H10.3957C11.0741 47.4645 11.3076 47.774 11.3076 48.1028V49.6778ZM82.9312 44.5382C80.2412 44.5092 78.0748 47.7574 78.0402 51.7503C78.0748 55.7694 80.2412 59.0176 82.9312 59.0453C83.0694 59.0176 83.2255 59.0066 83.3457 58.9624V56.3926C83.2212 56.4772 83.0797 56.5338 82.9312 56.5584C81.6159 56.5266 80.5672 54.3947 80.5272 51.7517C80.5658 49.1349 81.6159 47.0016 82.9312 47.0265C83.0748 47.004 83.2217 47.0334 83.3457 47.1094V44.5382C83.2085 44.5154 83.0684 44.5154 82.9312 44.5382Z" fill="#BDBDBD"/>
<path d="M60.7141 51.8332C59.4403 50.7804 58.766 50.4695 58.3101 49.9265C57.8334 49.4333 57.4715 48.6554 57.8127 47.7712C58.0918 46.8939 59.4403 46.3246 61.2944 47.7712V45.1185C60.4712 44.7103 59.5602 44.511 58.6417 44.5382C58.0407 44.5105 56.3316 44.6142 55.4087 46.6106C54.465 48.5518 55.0356 51.1935 56.4864 52.1648C57.9371 53.1637 59.3353 53.8365 59.3049 54.8175C59.3353 55.8054 58.766 56.5307 57.6469 56.6412C56.59 56.738 55.761 56.1162 55.4087 55.7294V58.465C56.3302 59.0702 57.419 59.2249 58.2272 59.1282C58.9733 59.0176 60.6837 58.8104 61.626 56.807C62.5489 54.7691 62.0308 52.8528 60.7141 51.8332ZM95.1595 59.2636C95.3348 59.269 95.5094 59.2391 95.673 59.1757C95.8365 59.1123 95.9856 59.0166 96.1114 58.8944C96.2373 58.7722 96.3372 58.626 96.4054 58.4644C96.4736 58.3028 96.5086 58.1291 96.5083 57.9537C96.508 57.7783 96.4725 57.6048 96.4038 57.4434C96.3351 57.282 96.2347 57.1361 96.1084 57.0143C95.9822 56.8925 95.8328 56.7973 95.6691 56.7344C95.5054 56.6715 95.3307 56.6422 95.1554 56.6482C94.8159 56.6597 94.4942 56.8028 94.2584 57.0472C94.0225 57.2917 93.891 57.6182 93.8915 57.9579C93.892 58.2975 94.0246 58.6237 94.2613 58.8673C94.4979 59.111 94.82 59.2531 95.1595 59.2636ZM95.1595 59.0909C94.5212 59.0909 94.0542 58.5935 94.0542 57.951C94.0542 57.3155 94.5198 56.8181 95.1595 56.8181C95.7951 56.8181 96.2579 57.3155 96.2579 57.951C96.2579 58.5935 95.7951 59.0909 95.1595 59.0909ZM95.3709 58.0091C95.6306 58.0022 95.831 57.8944 95.831 57.6084C95.831 57.3666 95.6997 57.2215 95.3129 57.2215H94.6746V58.6833H94.8542V58.0091H95.1816L95.6002 58.6819H95.8144L95.3709 58.0091ZM94.8528 57.8681V57.35H95.27C95.4496 57.35 95.6362 57.3777 95.6362 57.6056C95.6362 57.9027 95.3322 57.8681 95.125 57.8681H94.8528Z" fill="#BDBDBD"/>
</svg>
