<svg width="104" height="104" viewBox="0 0 104 104" fill="none" xmlns="http://www.w3.org/2000/svg">
<rect width="104" height="104" rx="8" fill="#121212"/>
<rect width="104" height="104" rx="8" fill="white" fill-opacity="0.05"/>
<path d="M22.7119 47.0405V36.9325C22.7119 36.558 22.7493 36.3333 23.386 36.3333H31.9589C33.4567 36.3333 34.2802 37.6064 34.8794 40.0022L35.3661 41.9119H36.826C37.0878 36.4837 37.3122 34.125 37.3122 34.125C37.3122 34.125 33.6435 34.5367 31.4721 34.5367H20.5036L14.625 34.3494V35.9219L16.6096 36.2962C17.9948 36.5584 18.3311 36.8576 18.4443 38.1309C18.4443 38.1309 18.5568 41.8745 18.5568 48.052C18.5568 54.2286 18.4443 57.9354 18.4443 57.9354C18.4443 59.0583 17.9948 59.47 16.6096 59.7329L14.625 60.1074V61.679L20.5036 61.4922H30.3122C32.521 61.4922 37.6498 61.679 37.6498 61.679C37.7617 60.331 38.511 54.2286 38.6233 53.5556H37.2381L35.778 56.8876C34.6172 59.5076 32.9329 59.6951 31.0606 59.6951H25.4821C23.61 59.6951 22.7115 58.9462 22.7115 57.3366V48.8007C22.7115 48.8007 26.7921 48.8007 28.2144 48.9132C29.2628 48.9884 29.8989 49.2877 30.2363 50.7477L30.6858 52.6944H32.2948L32.1829 47.7896L32.4073 42.8482H30.7979L30.2742 45.0194C29.9368 46.442 29.7126 46.7046 28.2522 46.8539C26.6052 47.0416 22.7112 47.004 22.7112 47.004V47.0412H22.7119V47.0405ZM44.9122 37.981C44.388 40.3021 43.8638 42.0989 42.0293 43.2971C40.9064 44.0455 39.7829 44.3073 39.3343 44.3448V45.7674H42.6661V57.2606C42.6661 60.4806 44.8003 62.0533 47.6452 62.0533C49.8542 62.0533 52.1375 61.1174 52.924 59.1702L52.1375 58.1593C51.763 58.7961 50.5657 59.7318 49.068 59.7318C47.421 59.7318 46.5225 58.6084 46.5225 55.7637V45.6184L52.0637 46.0305L52.3628 43.4841L46.5227 43.709V38.0181L44.9122 37.981ZM56.7428 55.6592L55.3202 55.6965C55.395 56.5199 55.4328 57.5686 55.4328 58.5419C55.4328 59.5527 55.3954 60.4886 55.3202 60.9377C55.3202 60.9377 58.1655 61.985 61.0482 61.985C64.9418 61.985 68.0493 60.1132 68.0493 56.4443C68.0493 50.1556 58.615 51.0917 58.615 46.8606C58.615 45.1013 60.1873 44.4271 61.9094 44.4271C63.2572 44.4271 64.3802 44.9138 64.6048 45.6257L65.541 48.4335L66.9264 48.3587C67.0389 46.861 67.1134 45.1389 67.3383 43.7539C66.1399 43.2297 63.6313 42.9296 62.0602 42.9296C58.3904 42.9296 55.4334 44.5397 55.4334 48.1339C55.4334 54.3857 64.6426 53.1128 64.6426 57.7183C64.6426 59.3648 63.6313 60.5256 61.3483 60.5256C59.2523 60.5256 58.2036 59.4402 57.7926 58.3539L56.7428 55.6592ZM79.3072 59.9842C77.1398 66.0385 74.4866 67.607 72.0952 67.607C71.0857 67.607 70.6004 67.1581 70.4503 66.4493L69.8898 63.5337L68.32 63.6084C68.0211 65.3277 67.7222 67.2342 67.3116 68.8033C68.2459 69.5124 69.8146 69.8869 71.0483 69.8869C73.6274 69.8869 77.5508 69.5499 81.1376 61.0302L87.1545 46.8303C87.6407 45.6715 87.8269 45.5594 89.247 44.9985L90.0319 44.7003V43.3923L86.4815 43.5791L82.6701 43.3923V44.7003L83.6411 44.9985C84.6124 45.2981 85.0617 45.6715 85.0617 46.3443C85.0617 46.6804 84.9491 47.0169 84.7618 47.5396C84.2014 48.9606 80.7259 57.4056 79.7927 59.1998L80.7257 58.8628C79.0812 54.7898 76.5786 47.988 76.2045 46.8305C76.1298 46.6061 76.0924 46.4193 76.0924 46.2316C76.0924 45.6339 76.5034 45.148 77.4004 44.9614L78.6337 44.7005V43.3925L73.5136 43.5793L69.4405 43.3925V44.7005L70.1133 44.9245C71.0475 45.2234 71.2719 45.4852 71.8323 46.7929C74.933 53.8935 76.3913 57.7792 78.371 62.862L79.3072 59.9842Z" fill="#BDBDBD"/>
</svg>
