<svg width="104" height="104" viewBox="0 0 104 104" fill="none" xmlns="http://www.w3.org/2000/svg">
<rect width="104" height="104" rx="8" fill="#121212"/>
<rect width="104" height="104" rx="8" fill="white" fill-opacity="0.05"/>
<path fill-rule="evenodd" clip-rule="evenodd" d="M9.75 9.75H94.25V94.25H9.75V9.75Z" fill="#121212"/>
<path fill-rule="evenodd" clip-rule="evenodd" d="M9.75 9.75H94.25V94.25H9.75V9.75Z" fill="white" fill-opacity="0.05"/>
<path fill-rule="evenodd" clip-rule="evenodd" d="M15.4326 54.6745C15.8128 54.9485 16.2338 55.1608 16.6802 55.3036C17.5635 55.5824 18.5114 55.5822 19.3946 55.3031C19.8435 55.161 20.2671 54.9488 20.6497 54.6745C21.0355 54.3967 21.3747 54.0593 21.6545 53.675C22.2024 52.9179 22.4967 52.0069 22.4953 51.0723C22.4953 50.6134 22.426 50.1522 22.2849 49.7085C21.9966 48.8003 21.424 48.0088 20.6515 47.4509C20.2693 47.1756 19.8458 46.9628 19.3968 46.8205C18.5121 46.5402 17.5624 46.54 16.6776 46.8201C15.7725 47.1099 14.9847 47.6834 14.4309 48.4557C14.1564 48.8382 13.9442 49.2618 13.8022 49.7107C13.662 50.1544 13.5927 50.6147 13.5927 51.0723C13.5927 51.53 13.6615 51.9855 13.8018 52.4252C14.0902 53.3304 14.6619 54.1189 15.4326 54.6745ZM25.0782 29.267H10.9927L18.0501 45.2564L25.0782 29.267Z" fill="#BDBDBD"/>
<path fill-rule="evenodd" clip-rule="evenodd" d="M29.5477 67.8063C29.5472 68.2403 29.4617 68.6699 29.296 69.071C28.96 69.8801 28.317 70.5231 27.5079 70.8592C27.1068 71.0247 26.6771 71.1101 26.2432 71.1103H25.5733C25.1411 71.1103 24.7084 71.0244 24.3086 70.8592C23.4994 70.5233 22.8563 69.8802 22.5205 69.071C22.3549 68.6699 22.2696 68.2402 22.2693 67.8063L22.2636 60.3118L14.6406 60.3013V65.9594C14.6406 67.1101 14.8703 68.2613 15.3096 69.3244C15.752 70.3911 16.3998 71.3605 17.2161 72.1774C18.0329 72.9935 19.0021 73.6411 20.0686 74.0834C21.1358 74.5243 22.279 74.7517 23.4336 74.7528H28.1466C29.2974 74.7528 30.4481 74.5231 31.5116 74.0834C32.5782 73.6411 33.5474 72.9935 34.3641 72.1774C35.1805 71.3605 35.8283 70.3912 36.2706 69.3244C36.7114 68.2572 36.9386 67.114 36.9396 65.9594V29.3009L29.5442 29.3114L29.5477 67.8063ZM85.8885 60.3118L85.8823 66.9659C85.8823 67.3982 85.796 67.8313 85.6316 68.2306C85.4651 68.6314 85.2216 68.9955 84.9148 69.3025C84.6082 69.6095 84.2439 69.8529 83.843 70.0188C83.4419 70.1845 83.0122 70.27 82.5783 70.2704H81.9089C81.4749 70.2699 81.0452 70.1844 80.6441 70.0188C80.2432 69.8529 79.8789 69.6095 79.5723 69.3025C79.2668 68.9969 79.0208 68.63 78.8556 68.2306C78.6903 67.8313 78.6039 67.3986 78.6039 66.9659L78.6074 29.3114L71.2124 29.3009L71.2151 73.8094H93.002L93.0081 60.3013L85.8885 60.3118ZM65.0497 53.6436C64.6845 52.779 64.1538 51.9942 63.4873 51.3334C62.8648 50.716 62.1175 50.2389 61.2954 49.9341C61.9794 49.6058 62.6073 49.1718 63.1559 48.6479C63.7149 48.117 64.208 47.4879 64.5403 46.7786C64.874 46.0631 65.0469 45.2833 65.0471 44.4938L65.0515 36.393C65.0515 35.4566 64.8647 34.5198 64.5079 33.6558C64.151 32.7917 63.6219 32.0009 62.9608 31.3403C62.3006 30.6796 61.5103 30.1501 60.6466 29.7923C59.783 29.4346 58.8471 29.2474 57.9103 29.2474H43.2036V73.8116H58.4701C59.8825 73.8115 61.2631 73.3927 62.4374 72.608C63.6118 71.8233 64.5271 70.7081 65.0677 69.4033C65.4258 68.5353 65.6104 67.6055 65.6113 66.6665C65.6113 63.2511 65.6025 59.8361 65.6113 56.4212C65.6112 55.4671 65.4203 54.5227 65.0497 53.6436ZM50.3794 33.0868L54.2498 33.0736C54.6838 33.0733 55.1136 33.1586 55.5146 33.3247C55.9155 33.4908 56.2798 33.7344 56.5864 34.0415C56.8928 34.3475 57.1379 34.714 57.3031 35.1134C57.4684 35.5127 57.553 35.9454 57.5548 36.3781L57.5754 45.3127C57.5756 45.8555 57.4147 46.3863 57.1131 46.8376C56.8114 47.289 56.3827 47.6407 55.881 47.8483C55.5479 47.9851 55.1913 48.0561 54.8311 48.0574L50.3794 48.0745V33.0868ZM57.6464 68.0378C57.5086 68.3707 57.3065 68.6733 57.0516 68.928C56.7968 69.1828 56.4942 69.3848 56.1612 69.5225C55.8281 69.6598 55.4715 69.7308 55.1112 69.7317L50.3798 69.7488V52.0786L54.53 52.0655C54.964 52.0649 55.3938 52.1501 55.7948 52.3162C56.1958 52.4823 56.56 52.7261 56.8665 53.0334C57.1721 53.3389 57.418 53.7059 57.5833 54.1052C57.7485 54.5046 57.834 54.9373 57.8349 55.3699L57.8555 66.9878C57.855 67.3481 57.784 67.7048 57.6464 68.0378Z" fill="#BDBDBD"/>
</svg>
