<svg width="104" height="104" viewBox="0 0 104 104" fill="none" xmlns="http://www.w3.org/2000/svg">
<rect width="104" height="104" rx="8" fill="#121212"/>
<rect width="104" height="104" rx="8" fill="white" fill-opacity="0.05"/>
<path d="M14.625 56.7172V40.9583H17.446V56.7172H14.625V56.7173V56.7172ZM24.6676 45.2847C21.0504 45.2847 18.5475 48.0136 18.5475 51.1371C18.5475 54.6231 21.2705 57.0247 24.6957 57.0247C27.9464 57.0247 30.7673 54.6675 30.7673 51.1296C30.7673 48.1547 28.4297 45.2847 24.6676 45.2847V45.2847ZM24.6343 47.9552C26.5273 47.9552 27.9205 49.401 27.9205 51.1471C27.9205 52.9986 26.3843 54.3491 24.6854 54.3491C22.6779 54.3491 21.4145 52.7879 21.4145 51.1522C21.4146 49.3592 22.841 47.9552 24.6343 47.9552V47.9552ZM37.8553 45.2847C34.2383 45.2847 31.7352 48.0136 31.7352 51.1371C31.7352 54.6231 34.4583 57.0247 37.8835 57.0247C41.1341 57.0247 43.955 54.6675 43.955 51.1296C43.955 49.0463 43.0356 48.122 43.0356 48.122L43.8176 47.8588V45.6122H39.8108C39.8108 45.6122 38.942 45.2847 37.8553 45.2847ZM37.8221 47.9552C39.715 47.9552 41.1083 49.401 41.1083 51.1471C41.1083 52.9986 39.5721 54.3491 37.8732 54.3491C35.8657 54.3491 34.6024 52.7879 34.6024 51.1522C34.6024 49.3592 36.0288 47.9552 37.8221 47.9552V47.9552ZM41.0884 57.4876C41.0884 59.3389 39.5523 60.6996 37.8533 60.6996C35.8458 60.6996 34.5773 59.1232 34.5773 57.4876H31.7153C31.7153 60.9735 34.4383 63.375 37.8636 63.375C41.1142 63.375 43.9351 61.0252 43.9351 57.4876H41.0884ZM45.085 56.7172V45.6122H47.9061V56.7172H45.085ZM50.6455 56.7172V48.0996H49.1327V45.6122H50.6455V42.202H53.4666V45.6122H55.0203V48.0996H53.4666V56.7172H50.6455ZM48.3578 42.4582C48.3578 43.4705 47.5214 44.2913 46.4897 44.2913C45.4578 44.2913 44.6215 43.4705 44.6215 42.4582C44.6215 41.4457 45.458 40.625 46.4897 40.625C47.5215 40.625 48.3578 41.4457 48.3578 42.4582ZM61.3627 45.2772C57.7285 45.2772 55.3857 48.0074 55.3857 51.2374C55.3857 54.5753 57.7364 57.0322 61.4216 57.0322C64.8591 57.0322 66.5502 54.9258 66.5502 54.9258L64.6643 53.0728C64.6643 53.0728 63.2404 54.5799 61.4573 54.5799C59.9709 54.5799 58.7824 53.7657 58.3678 52.273H67.1583V51.5108C67.1584 48.4692 65.3643 45.2772 61.3627 45.2772ZM61.2734 47.7145C62.5729 47.7145 63.902 48.3967 64.1993 50.0263H58.2912C58.5251 48.8808 59.5465 47.7145 61.2734 47.7145ZM74.2148 57.0337C70.5704 57.0337 68.087 54.3099 68.087 51.0985C68.087 47.7843 70.8936 45.2751 74.2031 45.2751C77.4024 45.2751 79.0402 47.4913 79.0402 47.4913L77.072 49.4137C77.072 49.4137 75.932 47.9683 74.1896 47.9683C72.2586 47.9683 70.9382 49.4179 70.9382 51.141C70.9382 52.9603 72.3427 54.3562 74.1679 54.3562C75.9384 54.3562 77.0693 52.9133 77.0693 52.9133L79.057 54.8346C79.057 54.8346 77.4353 57.0337 74.2149 57.0337H74.2148V57.0336V57.0337ZM80.0834 56.7252V40.9183H82.9045V46.7258C82.9045 46.7258 83.9847 45.2751 86.3345 45.2751C89.2886 45.2751 91 47.4299 91 50.1858V56.7252H88.1788V50.6042C88.1788 48.7527 87.0042 47.9845 85.7028 47.9845C84.22 47.9845 82.9046 48.8125 82.9046 50.7474V56.7252H80.0834Z" fill="#BDBDBD"/>
</svg>
