<svg width="104" height="104" viewBox="0 0 104 104" fill="none" xmlns="http://www.w3.org/2000/svg">
<rect width="104" height="104" rx="8" fill="#121212"/>
<rect width="104" height="104" rx="8" fill="white" fill-opacity="0.05"/>
<path d="M48.9539 13.1474C48.4339 13.3117 46.258 13.654 44.958 13.7636C43.7811 13.8594 43.5895 14.01 43.8221 14.6536C43.9179 14.9001 44.0685 15.7764 44.1643 16.6117C44.2737 17.4332 44.4106 18.4876 44.4927 18.9394C44.5611 19.3913 44.6706 20.1992 44.7117 20.7469C44.8485 22.1983 44.8485 22.1983 46.4907 21.9381C47.2433 21.8286 48.2013 21.6643 48.6118 21.5821C49.0223 21.5137 49.7066 21.4178 50.1308 21.3767C50.7877 21.322 50.9382 21.2535 51.0613 20.9659C51.1845 20.6921 51.1845 20.5552 51.0066 20.2813C50.774 19.939 50.7192 19.939 49.1592 20.2402C48.8171 20.3087 48.1739 20.4045 47.736 20.4456C47.2981 20.5004 46.778 20.6099 46.6001 20.6921C46.3538 20.8016 46.2307 20.7879 46.0938 20.6373C45.8475 20.3909 45.7106 18.5149 45.9296 18.3369C46.0117 18.2685 46.6686 18.1452 47.3802 18.0631C50.0076 17.7482 50.035 17.7482 50.1855 17.3237C50.3771 16.7623 50.0487 16.5432 49.1865 16.6801C47.4075 16.9677 45.7243 17.132 45.6012 17.0087C45.5464 16.9403 45.4643 16.42 45.4369 15.8586L45.3959 14.8316L45.8064 14.7905C47.4623 14.6536 49.7613 14.2702 49.9255 14.1196C50.1992 13.832 50.1582 13.2843 49.8571 13.12C49.5424 12.9557 49.5013 12.9557 48.9539 13.1474ZM59.2448 13.969C59.1353 14.2154 58.93 14.8179 58.8069 15.3108C58.6837 15.8038 58.5195 16.3789 58.4511 16.6117C58.369 16.8307 58.1227 17.7071 57.9174 18.5423C57.6984 19.3776 57.4521 20.2265 57.37 20.4319C57.3016 20.6373 57.2331 21.0207 57.2331 21.2672C57.2331 21.6643 57.2879 21.7601 57.6026 21.8286C57.7942 21.8834 58.0542 21.856 58.1774 21.7875C58.5058 21.5821 59.0122 20.1307 59.0122 19.3913C59.0122 18.4602 58.9985 18.4739 60.8596 19.0627C61.7765 19.3639 63.0218 19.3502 63.5007 19.049C63.9797 18.734 64.1713 18.5013 64.486 17.844C65.1839 16.4063 64.5271 15.037 62.9123 14.5714C62.4607 14.4345 61.8723 14.2428 61.6122 14.147C61.1743 13.969 59.669 13.5308 59.5322 13.5308C59.4911 13.5308 59.368 13.7362 59.2448 13.969ZM60.7091 15.0096C60.7501 15.0781 61.2428 15.2698 61.8038 15.4341C62.8439 15.749 63.5281 16.2693 63.5281 16.776C63.5281 17.0772 63.0081 17.8851 62.7207 18.0494C62.447 18.1863 60.9691 18.022 60.5448 17.7892C60.3806 17.7071 60.1069 17.6386 59.9153 17.6386C59.4501 17.6386 59.368 17.4469 59.6006 16.9266C59.7101 16.6801 59.888 16.1598 59.9701 15.7901C60.0659 15.4067 60.1754 15.0644 60.2027 14.9959C60.2848 14.859 60.6269 14.8727 60.7091 15.0096ZM38.3893 15.2424C37.9925 15.5299 37.9925 15.8038 38.4167 16.598C38.5946 16.9403 38.8957 17.5565 39.0599 17.9535C39.2241 18.3369 39.5115 18.871 39.6757 19.1311C39.8536 19.3913 40.0315 19.761 40.0862 19.9527C40.1273 20.1444 40.2368 20.4045 40.3326 20.5141C40.4283 20.6236 40.5515 20.8564 40.5926 21.0207C40.7841 21.6232 40.1547 21.363 38.9915 20.3635C38.3756 19.8294 37.404 19.0763 36.843 18.7066C36.2819 18.3232 35.5566 17.8029 35.2282 17.5428C34.7081 17.1183 34.585 17.0772 34.1334 17.1594C33.0797 17.3511 32.8881 17.7618 33.4628 18.6108C33.6271 18.871 33.8871 19.3776 34.0239 19.761C34.1608 20.1307 34.3797 20.6921 34.5166 20.9933C35.1187 22.3352 35.5977 23.5128 35.8303 24.1427C35.9535 24.5124 36.1861 24.9231 36.3366 25.0464C36.5693 25.2381 36.6514 25.2381 36.9935 25.0738C37.5135 24.8136 37.5135 24.3207 36.9798 23.28C36.7609 22.8282 36.5693 22.4174 36.5693 22.3489C36.5556 22.212 35.6524 20.3909 35.2692 19.7473C35.0366 19.3639 35.0503 18.871 35.2966 18.871C35.3513 18.871 35.8029 19.2407 36.2956 19.6925C36.7882 20.1444 37.2535 20.5141 37.3356 20.5141C37.4177 20.5141 37.5956 20.6373 37.7461 20.8016C37.883 20.9659 38.3483 21.3083 38.7588 21.5821C39.1694 21.856 39.8673 22.3489 40.3052 22.6912C41.0852 23.2663 41.1263 23.28 41.6463 23.1294C42.44 22.8966 42.5495 22.5543 42.1389 21.6917C41.7968 20.9796 40.2641 17.31 39.8946 16.3378C39.5115 15.3108 39.3746 15.1055 39.0325 15.0644C38.8409 15.0507 38.5535 15.1191 38.3893 15.2424ZM69.6862 17.1868C69.5767 17.2141 69.303 17.4743 69.0704 17.7618C68.8514 18.0494 68.4409 18.4465 68.1809 18.6519C67.9209 18.8573 66.8535 19.8158 65.8271 20.8016C64.8008 21.7738 63.8976 22.568 63.8155 22.568C63.6923 22.568 63.3913 22.9925 63.3913 23.1705C63.3913 23.3896 63.8976 23.6634 64.3081 23.6634C64.7324 23.6634 64.9103 23.5539 65.5671 22.8419C66.4019 21.9655 66.5387 21.8971 66.8672 22.2257C66.9903 22.3489 67.5514 22.6638 68.1262 22.924L69.1799 23.4033L69.0841 24.1153C69.043 24.5124 68.9609 25.0053 68.9336 25.2381C68.7967 25.9775 69.7683 26.7306 70.0831 26.1418C70.1652 25.9912 70.3294 24.7178 70.4389 23.3074C70.562 21.9107 70.6852 20.6921 70.7262 20.6236C70.8357 20.4456 71.041 17.9125 70.9589 17.6934C70.9041 17.5428 70.0694 17.0635 69.9325 17.1046C69.9188 17.1183 69.7957 17.1457 69.6862 17.1868ZM69.7273 19.227C69.6999 19.3639 69.6315 20.0348 69.5631 20.6921C69.5083 21.363 69.3715 21.9792 69.2894 22.0614C69.1662 22.1846 68.9199 22.1024 68.2767 21.7601C67.0451 21.0892 67.0724 21.1713 67.9346 20.4319C68.0304 20.3361 68.4135 19.9527 68.783 19.5693C69.4536 18.8573 69.782 18.7477 69.7273 19.227ZM28.7964 20.3224C28.3721 20.6236 28.4269 21.1166 28.9469 21.7054C29.5353 22.39 30.6438 23.8414 31.2322 24.6904C31.4922 25.0601 31.7796 25.4572 31.8754 25.5667C31.9849 25.6626 32.2723 26.0596 32.5186 26.4567C33.2165 27.5385 33.326 27.6069 33.9008 27.1688C34.1608 26.9634 34.3797 26.7306 34.3797 26.6621C34.3797 26.58 33.8597 25.8543 33.2302 25.0601C32.0123 23.4854 31.287 22.4995 30.329 21.0207C29.6859 20.0348 29.3985 19.8979 28.7964 20.3224ZM76.898 21.856C76.7612 21.9929 76.6654 22.1572 76.6654 22.1983C76.6654 22.2531 76.2822 22.6775 75.817 23.1568C75.338 23.6223 74.1611 24.8273 73.2032 25.8406C71.5473 27.5658 71.4652 27.6754 71.6431 27.9629C72.0126 28.5106 72.4368 28.4011 73.2442 27.5385C73.6411 27.1003 74.339 26.3609 74.7769 25.8816C75.2148 25.4024 75.7348 24.7725 75.9401 24.4713C76.3233 23.8962 76.6654 23.773 76.6654 24.2111C76.6654 24.3617 76.5422 24.8684 76.4054 25.3339C76.2549 25.8132 76.0633 26.6621 75.9675 27.2235C75.8854 27.7849 75.7212 28.675 75.6254 29.1816C75.3517 30.5235 75.379 31.2218 75.7212 31.66C76.1043 32.1529 76.2959 32.1118 76.8159 31.4546C77.2265 30.9343 78.2802 29.8115 80.7982 27.1551C81.3182 26.6347 81.7287 26.1281 81.7287 26.0596C81.7287 25.731 81.2908 25.3065 80.935 25.3065C80.634 25.3065 80.415 25.4982 79.8403 26.224C79.4571 26.7443 78.7865 27.5248 78.376 27.9766C77.9518 28.4285 77.4728 29.0036 77.3086 29.2364C77.0075 29.6882 76.7475 29.7978 76.6107 29.565C76.5696 29.4965 76.6517 29.0584 76.8022 28.5928C76.9528 28.1136 77.0759 27.5932 77.0759 27.4152C77.0759 27.2372 77.1717 26.8538 77.2812 26.58C77.4454 26.1281 77.8012 24.4165 77.9928 23.0062C78.0476 22.6912 77.9791 22.4311 77.7465 22.0888C77.377 21.541 77.2128 21.5 76.898 21.856ZM24.3762 24.3891C22.5425 25.2655 21.5982 26.8812 21.9266 28.6065C22.2961 30.5509 25.0604 32.7143 26.9216 32.5089C29.2343 32.2625 30.8764 29.9895 30.2059 27.9629C29.9459 27.1961 29.4532 26.402 29.2343 26.402C28.7143 26.402 28.4406 27.5795 28.8374 28.0999C28.9606 28.2642 29.0427 28.675 29.0427 29.0994C29.0427 29.7019 28.9743 29.8936 28.6185 30.3044C27.8658 31.1533 27.0447 31.3861 25.9226 31.0575C25.2931 30.8795 24.0888 29.8251 23.6509 29.0857C22.9804 27.9355 23.2814 26.5526 24.3762 25.7858C24.8962 25.4435 25.0468 25.4024 26.0321 25.4161C27.0037 25.4435 27.1268 25.4161 27.2637 25.1559C27.4689 24.7862 27.1405 24.4028 26.4563 24.2111C25.7173 24.0057 25.0741 24.0605 24.3762 24.3891ZM83.5351 30.5235C82.9877 30.8932 82.4951 31.1944 82.454 31.1944C82.413 31.1944 82.153 31.3724 81.8793 31.5915C81.6056 31.8106 81.2908 32.0023 81.1814 32.0297C80.7845 32.1255 77.897 34.1384 77.897 34.3164C77.897 34.4122 78.0749 34.7271 78.2939 35.001C78.6497 35.4666 79.5255 36.918 80.415 38.479C80.8256 39.2184 81.0445 39.2868 81.5372 38.7939C81.8245 38.5063 81.8519 38.4105 81.7151 38.1503C81.3729 37.4657 80.2782 35.7541 79.9224 35.3022C79.416 34.6724 79.416 34.2342 79.9224 34.1247C80.1276 34.0836 80.5245 33.8508 80.8256 33.618C81.3866 33.1799 81.6329 33.2073 81.9203 33.7276C82.0024 33.8782 82.3993 34.4944 82.7825 35.1105C83.1793 35.7267 83.5625 36.384 83.6309 36.5757C83.7814 36.9591 84.0415 36.9591 84.5067 36.562C84.8215 36.2881 84.8078 36.0553 84.4246 35.535C84.2604 35.2885 84.0551 34.9873 83.9867 34.8641C83.9046 34.7408 83.5488 34.1931 83.1656 33.6454C82.5361 32.7417 82.4951 32.6595 82.7277 32.5089C82.8646 32.4268 83.2888 32.1666 83.6583 31.9201C84.0278 31.6737 84.4109 31.5094 84.5067 31.5504C84.712 31.6189 85.1499 32.3172 85.1499 32.5774C85.1499 32.7965 86.2584 34.4807 86.4089 34.4807C86.4636 34.4807 86.5184 34.5628 86.5184 34.6724C86.5184 34.7819 86.6279 35.001 86.7784 35.179C86.9973 35.4666 87.0795 35.4802 87.3942 35.3296C87.6816 35.2064 87.75 35.0695 87.75 34.7135C87.75 34.4259 87.6405 34.1521 87.49 34.0151C87.3395 33.8782 87.1205 33.5496 86.9837 33.2757C86.8605 32.9882 86.5184 32.4268 86.2447 32.016C85.9573 31.6052 85.5604 30.9343 85.3689 30.5372C85.1362 30.0853 84.931 29.8251 84.7667 29.8388C84.6436 29.8388 84.0825 30.1401 83.5351 30.5235ZM55.3857 31.0027C55.1668 31.1807 54.6741 31.523 54.2909 31.7558C53.2372 32.3857 53.0867 32.4815 52.6488 32.7691C52.4298 32.9197 51.7456 33.3305 51.1435 33.6865C50.0897 34.3027 49.1865 34.8641 48.516 35.3022C47.9276 35.6993 45.9433 36.9043 45.738 37.0001C45.6285 37.0412 45.2317 37.274 44.8485 37.4931C44.479 37.7259 43.7811 38.0956 43.3158 38.3146C42.6589 38.6296 42.4811 38.7665 42.5495 38.9445C42.6179 39.1362 42.8095 39.1636 43.9453 39.0814C45.1769 39.013 47.3802 38.9582 48.2423 38.9856C48.6939 38.9993 48.7213 39.3553 48.3655 40.0947L48.1328 40.5739L42.5221 40.6013C36.9935 40.6424 36.9114 40.6424 36.6787 40.93C36.5419 41.0943 36.4324 41.3407 36.4324 41.4777C36.4324 41.6146 36.2545 42.1349 36.0219 42.6005C35.8029 43.0797 35.6113 43.5453 35.6113 43.6274C35.6113 43.7233 35.4334 44.1888 35.2008 44.6544C34.9818 45.1336 34.7903 45.5992 34.7903 45.6813C34.7903 45.7635 34.7081 45.9963 34.5987 46.2154C34.4892 46.4207 34.2976 46.8726 34.1744 47.2149C33.7913 48.2008 33.2028 49.5838 32.9291 50.1178C32.8197 50.3095 32.7376 50.5696 32.7376 50.6792C32.7376 50.7887 32.546 51.3364 32.3133 51.8841C32.0807 52.4455 31.807 53.0754 31.7112 53.3082C31.3691 54.1297 31.068 54.8281 30.8764 55.1978C30.767 55.4169 30.6848 55.677 30.6848 55.7729C30.6848 55.8687 30.6027 56.1289 30.4933 56.348C30.3838 56.5534 30.1922 57.0052 30.069 57.3475C29.9322 57.6899 29.7543 58.1417 29.6585 58.3745C29.2616 59.3193 29.1795 59.4973 28.9058 60.223C28.7416 60.6338 28.5227 61.1404 28.4132 61.3458C28.3037 61.5375 28.2216 61.8525 28.2216 62.0441C28.2216 62.2358 28.1258 62.4139 28.0163 62.4686C27.9069 62.5097 27.8111 62.6877 27.8111 62.8657C27.8111 63.0574 27.7153 63.2765 27.6058 63.3723C27.4963 63.4682 27.4005 63.6188 27.4005 63.7147C27.4005 63.8105 27.3047 63.9611 27.1953 64.057C27.0858 64.1528 26.99 64.2761 26.99 64.3445C26.99 64.413 31.3828 64.4678 37.0893 64.4678C45.259 64.4541 47.2433 64.4267 47.5033 64.2761C47.7223 64.1528 47.9002 63.879 48.0097 63.4956C48.1876 62.8657 48.6802 61.5923 49.2413 60.3873C49.4192 59.9902 49.5697 59.6342 49.5697 59.5795C49.5697 59.4699 50.4866 57.1558 50.815 56.4301C50.9519 56.1015 51.075 55.8003 51.075 55.7592C51.075 55.7044 51.2119 55.3758 51.3624 55.0335C51.5266 54.6912 51.7045 54.2804 51.773 54.1297C51.8277 53.9791 52.0056 53.5547 52.1561 53.185C52.3203 52.8152 52.4435 52.4592 52.4435 52.3908C52.4435 52.3223 52.6077 51.9115 52.7993 51.4871C53.0046 51.0626 53.2099 50.5559 53.2783 50.3642C53.5657 49.5153 53.9078 48.6253 54.0583 48.3377L54.2362 48.0365H58.6016C61.0101 48.0365 62.9807 48.0913 62.9807 48.1597C62.9807 48.2145 62.8165 48.502 62.6249 48.7896C62.2417 49.351 61.9133 50.1315 61.3796 51.7335C61.188 52.2949 60.9417 52.8837 60.8459 53.0343C60.7364 53.185 60.6543 53.3903 60.6543 53.4862C60.6543 53.5957 60.5722 53.8696 60.4627 54.1024C60.3669 54.3488 60.2301 54.7185 60.1617 54.9513L60.0248 55.3621L56.4394 55.3758C54.4688 55.3758 52.8267 55.4169 52.7719 55.4716C52.7309 55.5127 52.5393 55.9646 52.3614 56.4849C52.074 57.2928 51.6908 58.2513 50.9656 59.9492C50.6371 60.716 50.4455 61.2089 50.2129 61.7977C50.1034 62.0989 49.7203 63.0163 49.3781 63.8516C49.036 64.6732 48.7486 65.4536 48.7486 65.5769C48.7486 66.0972 48.4613 66.1383 45.0264 66.0972C42.1389 66.0561 41.701 66.0698 41.66 66.2615C41.6463 66.3711 42.1937 67.0146 42.8916 67.6992C43.5895 68.3839 44.7253 69.5204 45.4233 70.2324C46.1212 70.9444 46.7644 71.588 46.8602 71.6838C46.9559 71.766 47.6539 72.4917 48.4065 73.2859C49.7476 74.7236 50.2129 74.9975 50.4866 74.5593C50.5413 74.4772 51.0613 74.1622 51.6224 73.8747C52.6625 73.3407 52.7583 73.2859 53.7435 72.6971C54.2362 72.3822 54.7973 72.0809 55.7278 71.588C55.9194 71.4921 56.1657 71.3552 56.2752 71.3004C56.3847 71.232 56.8226 70.9992 57.2331 70.7664C57.6437 70.5473 58.3006 70.1776 58.67 69.9586C59.0532 69.7258 59.6006 69.4245 59.9017 69.2876C60.2027 69.1507 60.5312 68.9316 60.6406 68.8084C60.7364 68.6714 60.9006 68.5756 61.0101 68.5756C61.1059 68.5756 61.4617 68.3839 61.7901 68.1648C62.1323 67.932 62.4607 67.754 62.5154 67.754C62.5839 67.754 63.2134 67.4665 63.9113 67.1105C64.7734 66.6586 65.1703 66.3847 65.1703 66.2204C65.1703 65.9877 64.9924 65.974 62.6796 66.0424C61.2975 66.0835 59.6417 66.1383 58.9985 66.1794C58.0542 66.2341 57.7942 66.2067 57.7395 66.0424C57.6711 65.8781 58.1774 64.7142 58.4511 64.4404C58.4921 64.3856 60.2438 64.3308 62.3375 64.3308C66.6482 64.3171 66.2787 64.413 66.7166 63.0985C66.8945 62.5508 67.7019 60.5653 68.263 59.2919C68.3725 59.0454 68.4546 58.7716 68.4546 58.6757C68.4546 58.5799 68.523 58.4293 68.6188 58.3334C68.7146 58.2376 68.8514 57.9089 68.9472 57.5803C69.1115 56.9915 70.822 52.6783 71.4105 51.3501C71.5884 50.953 71.7389 50.5696 71.7389 50.4875C71.7389 50.4053 71.821 50.1726 71.9305 49.9809C72.1905 49.4605 72.3821 49.0087 72.6147 48.3788C72.779 47.8859 73.1211 47.0232 73.6 45.9141C74.4348 43.9013 74.6127 43.4631 74.6127 43.2988C74.6127 43.1345 75.0506 42.1897 75.6664 41.0121C75.7759 40.8067 75.817 40.6424 75.7485 40.6424C75.6938 40.6287 71.4652 40.6287 66.3745 40.6424C61.2701 40.6424 57.0963 40.6287 57.0963 40.5876C57.0963 40.3686 57.7668 39.0404 57.9721 38.876C58.15 38.7254 58.7385 38.698 61.0649 38.7528L63.9386 38.8213V38.5063C63.9386 38.3283 63.8839 38.1777 63.8155 38.1777C63.7471 38.1777 61.9817 36.4798 59.888 34.4122C57.7942 32.3446 56.0152 30.6467 55.9468 30.6467C55.8647 30.6604 55.6184 30.811 55.3857 31.0027ZM57.2058 34.0836C57.9311 34.8504 58.9848 35.85 59.5322 36.3018C60.2301 36.8632 60.4901 37.1645 60.3943 37.2603C60.2985 37.3562 59.5595 37.3972 58.4237 37.3698C56.4394 37.3425 56.3847 37.3562 56.1931 38.1093C56.1384 38.342 56.0563 38.5748 56.0015 38.657C55.9605 38.7254 55.8373 39.0677 55.7415 39.4101C55.3447 40.7793 55.6868 40.6424 52.594 40.6424C51.0887 40.6424 49.8297 40.6013 49.8024 40.5329C49.7613 40.4781 50.035 39.8208 50.4045 39.0814C50.7877 38.342 51.0614 37.6437 51.0203 37.5478C50.9245 37.2877 50.1582 37.3014 49.3234 37.5752C48.516 37.8354 48.1602 37.7532 48.2286 37.3425C48.256 37.1508 48.4339 37.0001 48.7623 36.8906C49.036 36.7948 49.4466 36.5894 49.6792 36.425C49.8982 36.2607 50.1855 36.1238 50.295 36.1238C50.4045 36.1238 50.5687 36.028 50.6645 35.9184C50.7603 35.8089 50.8971 35.713 50.9656 35.713C51.0477 35.713 51.3761 35.5213 51.7182 35.3022C52.0466 35.0695 52.3751 34.8915 52.4435 34.8915C52.5119 34.8915 52.6488 34.8093 52.7446 34.7135C52.9909 34.5081 53.333 34.289 54.0172 33.9467C54.3183 33.796 54.7562 33.4811 55.0025 33.262C55.372 32.9334 55.591 32.7828 55.8373 32.7143C55.851 32.7006 56.4668 33.3305 57.2058 34.0836ZM73.3811 42.0528C73.3811 42.1212 73.2305 42.4225 73.0526 42.7374C72.8747 43.0523 72.5874 43.6548 72.4231 44.0656C72.2589 44.4764 72.0537 44.9967 71.9442 45.2295C71.8484 45.4486 71.6842 45.8593 71.6021 46.1195C71.5063 46.3797 71.1368 47.3108 70.7673 48.1734C70.4115 49.0361 69.7683 50.6381 69.3441 51.7335C68.9199 52.8289 68.482 53.897 68.3725 54.1297C68.2767 54.3488 68.0577 54.9102 67.8935 55.3621C67.7293 55.814 67.5103 56.3069 67.4146 56.4575C67.3051 56.6081 67.223 56.8135 67.223 56.9368C67.223 57.1558 66.4429 59.1002 66.1556 59.6342C66.0598 59.7985 65.9913 60.0039 65.9913 60.0861C65.9913 60.1819 65.9092 60.4421 65.7998 60.6749C65.704 60.9213 65.4987 61.4143 65.3482 61.7977L65.0882 62.4823L61.2564 62.5097C57.5616 62.5508 57.4247 62.5645 57.2058 62.8383C57.0689 63.0026 56.9595 63.2902 56.9595 63.4956C56.9595 63.701 56.8773 63.9748 56.7816 64.1254C56.6721 64.2761 56.4258 64.8238 56.2205 65.3578C56.0152 65.8781 55.7005 66.5764 55.5089 66.8914C55.112 67.576 55.112 67.576 55.4541 67.754C55.6731 67.8636 56.111 67.8499 57.1921 67.6856C58.2732 67.5349 58.6837 67.5212 58.8206 67.6308C59.1353 67.8909 59.0395 68.0142 58.369 68.3154C57.9995 68.4797 57.6163 68.6577 57.5068 68.7262C57.3974 68.781 56.6858 69.137 55.9331 69.5204C55.1804 69.9038 54.1951 70.4378 53.7435 70.698C53.292 70.9718 52.7446 71.2731 52.5119 71.3963C51.5266 71.8892 50.8698 72.3 50.7603 72.478C50.5687 72.8203 50.0076 72.7245 49.7887 72.3C49.5697 71.9029 47.2023 69.5341 46.0938 68.6304C45.5875 68.2196 45.4369 68.0142 45.5054 67.8362C45.5875 67.6445 45.7106 67.6034 46.1212 67.6719C46.3949 67.7129 47.257 67.7814 48.0233 67.8225C49.3097 67.8909 49.4466 67.8773 49.7066 67.6171C49.8571 67.4665 49.9803 67.2474 49.9803 67.1242C49.9803 67.0009 50.0624 66.7408 50.1718 66.5491C50.2676 66.3437 50.4182 65.9877 50.5003 65.7686C50.6508 65.3441 51.4993 63.2217 51.8414 62.4412C51.9509 62.1948 52.033 61.9072 52.033 61.8114C52.033 61.7018 52.1288 61.5512 52.2382 61.4554C52.3477 61.3595 52.4435 61.1815 52.4435 61.0446C52.4435 60.8118 53.073 59.2098 53.4835 58.4019C53.593 58.1828 53.6751 57.8679 53.6751 57.6899C53.6751 57.0874 53.853 57.06 57.4795 57.0874C59.3543 57.1011 60.9691 57.06 61.0512 57.0052C61.2291 56.9094 61.8859 55.499 61.8859 55.2389C61.8859 55.1567 61.968 54.9376 62.0638 54.7459C62.1596 54.5542 62.3512 54.0887 62.4881 53.719C62.6249 53.3356 62.8165 52.8426 62.9123 52.6236C63.2818 51.7472 63.9386 49.9945 63.9386 49.8987C63.9386 49.8439 64.1302 49.3921 64.3492 48.8991C64.5818 48.4199 64.7597 47.9543 64.7597 47.8859C64.7597 47.8037 64.9103 47.4751 65.1018 47.1601C65.2934 46.8315 65.4029 46.5303 65.3482 46.4892C65.3071 46.4344 60.1754 46.3934 53.9488 46.3934C42.7 46.3934 42.6316 46.3934 42.2621 46.6809C42.0705 46.8315 41.9063 47.078 41.9063 47.2149C41.9063 47.3655 41.7831 47.7489 41.6326 48.0639C41.4958 48.3925 40.9894 49.6111 40.5378 50.775C40.0725 51.9389 39.621 53.0754 39.5115 53.3082C39.4157 53.5273 39.1967 54.0613 39.0325 54.4721C38.8683 54.8829 38.5535 55.5812 38.3209 56.033C38.1019 56.4712 37.9514 56.9094 37.9925 57.0052C38.0335 57.1285 38.6767 57.1558 40.4968 57.1285C41.8379 57.1148 43.0148 57.0874 43.0969 57.0874C43.2748 57.0737 43.8221 56.1152 43.8221 55.8276C43.8221 55.7455 43.9043 55.4853 44.0137 55.2526C44.1232 55.0061 44.3969 54.3214 44.6295 53.719C44.8759 53.1165 45.1222 52.5003 45.1906 52.3497C45.259 52.1991 45.4369 51.7609 45.5875 51.3912C46.4907 49.0497 46.7507 48.4883 46.9423 48.283C47.1475 48.0776 47.5033 48.0502 49.5013 48.0365C50.7877 48.0228 51.9372 48.0228 52.074 48.0228C52.4024 48.0365 52.3751 48.461 51.9919 49.0087C51.814 49.2688 51.4171 50.1178 51.1161 50.912C50.8013 51.7061 50.4182 52.6509 50.2676 53.0343C50.1171 53.404 49.6245 54.6775 49.1729 55.8413C48.735 57.0052 48.3244 58.0596 48.2834 58.1691C48.2423 58.2786 48.1465 58.4703 48.0781 58.5799C47.9686 58.7716 47.4212 60.0998 46.997 61.25C46.8875 61.5512 46.7507 61.9894 46.7096 62.2359L46.6275 62.674L38.6904 62.7425C34.325 62.7836 30.5206 62.852 30.2469 62.9068C29.5764 63.03 29.4669 62.7562 29.8911 62.0441C30.069 61.7566 30.4248 61.0309 30.6712 60.4284C30.9175 59.8259 31.2049 59.1413 31.3007 58.9222C31.4786 58.5388 31.7933 57.7583 32.7376 55.321C32.9702 54.7459 33.2439 54.1161 33.3397 53.9244C33.4355 53.7327 33.6544 53.1986 33.8323 52.7194C33.9965 52.2538 34.2018 51.8294 34.2566 51.7883C34.325 51.7472 34.3797 51.6103 34.3797 51.4734C34.3797 51.3364 34.585 50.7476 34.845 50.1452C35.0913 49.5564 35.5566 48.4199 35.885 47.6257C36.1998 46.8315 36.5419 45.9963 36.6514 45.7498C36.7609 45.517 36.843 45.2842 36.843 45.2295C36.843 45.1747 36.9251 44.9419 37.0345 44.7092C37.1303 44.4627 37.3219 43.956 37.4588 43.5863C37.5956 43.2029 37.7872 42.8059 37.883 42.6826C37.9925 42.5731 38.0746 42.3814 38.0746 42.2582C38.0746 42.1486 38.1019 42.0254 38.1293 41.998C38.2388 41.8884 73.3811 41.9432 73.3811 42.0528ZM45.0401 48.0913C45.1632 48.2419 45.1359 48.3925 44.8759 48.7622C44.698 49.0224 44.479 49.4468 44.3832 49.6933C44.2874 49.9535 44.0274 50.5833 43.8085 51.1037C43.5895 51.624 43.4116 52.158 43.4116 52.2949C43.4116 52.4319 43.3569 52.5688 43.2884 52.6099C43.2337 52.6509 42.9737 53.1986 42.7411 53.8148C42.4947 54.4447 42.2484 55.0882 42.18 55.2389C42.0842 55.4853 41.9473 55.5401 41.2905 55.5538C40.4557 55.5675 40.1957 55.3484 40.5789 54.9102C40.7705 54.6912 41.6326 52.8152 41.6326 52.6099C41.6326 52.5551 41.7694 52.2265 41.92 51.8841C42.0842 51.5418 42.2621 51.131 42.3305 50.9804C42.4811 50.597 42.9326 49.4331 43.1379 48.8854C43.2337 48.639 43.4663 48.3103 43.6579 48.1734C44.0548 47.8585 44.8074 47.8174 45.0401 48.0913ZM18.0265 31.7558C17.7528 32.2898 17.8349 32.5226 18.396 32.7828C18.6423 32.8923 19.1897 33.2209 19.6003 33.5222C20.0108 33.8234 20.4076 34.0699 20.4761 34.0699C20.5582 34.0699 20.8319 34.2205 21.0919 34.3848C21.3656 34.5628 21.9266 34.9325 22.3372 35.1927C22.7477 35.4529 23.3909 35.8636 23.7604 36.0964C24.7867 36.7674 25.3478 36.6441 25.3478 35.7541C25.3478 35.4529 25.2794 35.3022 25.1562 35.3022C25.0468 35.3022 24.7867 35.1516 24.5815 34.9599C24.3899 34.7819 24.0888 34.5902 23.9383 34.5354C23.7741 34.4807 23.4867 34.3301 23.2951 34.2068C22.9941 34.0014 21.2561 32.8923 20.5855 32.4952C19.8329 32.0434 19.2034 31.5915 19.1213 31.4683C19.0802 31.3998 18.8613 31.3313 18.6423 31.3313C18.3276 31.3313 18.1907 31.4272 18.0265 31.7558Z" fill="#BDBDBD"/>
<path d="M67.5596 34.5801C66.5441 35.4051 66.3437 36.4601 67.0118 37.3798C67.8 38.4618 69.2296 38.5565 70.2183 37.5827C70.6993 37.1093 70.7394 37.0146 70.726 36.3789C70.7127 35.3916 70.6058 35.1617 69.9377 34.6342C69.1094 33.9715 68.3345 33.958 67.5596 34.5801ZM69.1895 35.04C69.577 35.1887 69.4033 35.3646 68.8689 35.3646C68.3612 35.3646 68.2142 35.2564 68.428 35.0535C68.5349 34.9318 68.909 34.9318 69.1895 35.04ZM67.9604 36.2572C67.9069 37.1363 67.8802 37.1904 67.6798 37.0552C67.5195 36.9605 67.4794 35.9326 67.613 35.5674C67.6664 35.4457 67.7733 35.3781 67.8535 35.4051C67.947 35.4457 67.9871 35.7433 67.9604 36.2572ZM69.911 36.2978C69.8709 36.8117 69.8309 36.9199 69.6037 36.9199C69.3232 36.9199 69.3232 36.8794 69.4835 35.865C69.5503 35.4457 69.6037 35.3781 69.7641 35.5133C69.8843 35.6215 69.9377 35.8785 69.911 36.2978ZM69.0025 35.8785C69.0025 36.0679 68.8555 36.1625 68.6551 36.0814C68.5482 36.0408 68.5082 35.9597 68.5482 35.892C68.6418 35.7433 69.0025 35.7297 69.0025 35.8785ZM69.2029 36.9876C69.3365 37.204 69.0159 37.5286 68.6685 37.5286C68.3612 37.5286 68.1341 37.204 68.281 36.974C68.3745 36.8117 69.096 36.8253 69.2029 36.9876ZM16.4952 36.3925C16.3482 36.7306 16.228 37.0552 16.228 37.1228C16.228 37.204 15.9875 37.8396 15.5599 38.8134C15.4931 38.9622 15.3996 39.2327 15.3462 39.4221C15.2927 39.6114 15.1458 39.9225 15.0121 40.1254C14.6915 40.5717 14.6915 41.0045 15.0121 41.1668C15.1458 41.2479 15.7069 41.4508 16.268 41.6402C16.8158 41.816 17.377 42.0324 17.5106 42.1C17.6576 42.1676 18.2721 42.4246 18.9001 42.6545C19.528 42.898 20.343 43.2091 20.7038 43.3578C22.2403 44.007 22.1066 43.98 22.3872 43.6283C22.6812 43.2632 22.7212 42.7627 22.4674 42.5599C22.3739 42.4787 21.9998 42.3435 21.639 42.2488C21.2649 42.1676 20.8374 42.0053 20.6771 41.9107C20.5167 41.8025 20.2362 41.7213 20.0491 41.7213C19.8754 41.7213 19.6349 41.6266 19.528 41.5184C19.341 41.3426 19.3544 41.2615 19.5815 40.8151C20.5702 38.8405 20.7973 38.2183 20.6771 37.8396C20.5702 37.5286 20.4633 37.4474 20.0758 37.4204L19.6082 37.3798L19.2341 38.57C19.0337 39.2192 18.8199 39.8278 18.7531 39.8954C18.6997 39.9766 18.6329 40.2471 18.6062 40.5041C18.5661 40.9369 18.526 40.9774 18.1653 40.9639C17.5239 40.9369 16.4417 40.45 16.3749 40.1659C16.3349 39.9495 16.6822 39.0298 17.2434 37.8937C17.3503 37.6773 17.4304 37.4339 17.4304 37.3257C17.4304 37.231 17.5239 37.0822 17.6308 36.9876C17.8713 36.7847 17.898 36.1625 17.6709 35.9326C17.5774 35.8379 17.3369 35.7703 17.1365 35.7703C16.8025 35.7703 16.709 35.865 16.4952 36.3925ZM87.507 39.5032C86.9993 39.6926 84.728 40.4364 84.1668 40.5987C84.0199 40.6393 83.4186 40.8151 82.8308 40.991C82.2429 41.1533 81.5882 41.3156 81.3745 41.3426C80.7866 41.4102 80.6396 41.7484 80.9469 42.3299C81.0939 42.5869 81.2943 42.8033 81.4012 42.8033C81.6951 42.8033 83.5522 42.1406 83.8996 41.9107C84.3138 41.6402 84.581 41.9107 84.7547 42.7357C84.8215 43.1009 84.9818 43.7365 85.0887 44.1423C85.3693 45.1161 85.2624 45.4407 84.6211 45.6977C84.3272 45.8194 84.0065 45.9141 83.913 45.9141C83.8061 45.9141 83.5522 46.0087 83.3518 46.1169C83.1381 46.2251 82.8708 46.3198 82.7506 46.3198C82.3498 46.3198 82.2162 47.2666 82.5502 47.6994C82.764 47.9969 83.0045 48.0104 83.285 47.7535C83.4053 47.6453 83.9798 47.3748 84.5676 47.1313C85.8503 46.5903 85.9705 46.5092 85.9705 46.1034C85.9705 45.6436 86.1442 45.6165 86.7454 45.9411C87.2398 46.2251 87.3467 46.2387 88.0281 46.0899C89.4977 45.7788 90.0455 44.8726 89.7248 43.2902C89.5378 42.3705 89.2439 41.3561 88.9633 40.6393C88.8698 40.3823 88.7629 39.9766 88.7495 39.7602C88.6961 39.2733 88.322 39.1921 87.507 39.5032ZM87.9746 41.0451C87.9746 41.1938 88.0281 41.4238 88.0949 41.559C88.1617 41.6807 88.322 42.2623 88.4556 42.8304C88.7495 44.1017 88.656 44.4939 87.9479 44.8591C87.5203 45.089 87.4001 45.1026 87.0794 44.9403C86.6385 44.7239 86.1576 43.8988 86.024 43.1414C85.9705 42.8439 85.8235 42.3976 85.6899 42.1406C85.4227 41.6402 85.5296 41.3291 85.9572 41.302C86.0774 41.302 86.4782 41.1803 86.839 41.0451C87.7608 40.7205 87.9746 40.7205 87.9746 41.0451ZM13.5959 44.7915C13.4757 44.8321 13.4222 45.2919 13.4222 46.3874C13.4222 47.3883 13.3554 48.1322 13.2218 48.5244C13.0081 49.1601 12.9279 50.3773 13.0749 50.6208C13.1283 50.7154 13.5024 50.7831 13.9299 50.7831C14.8385 50.7831 18.0851 51.1212 19.3143 51.3376C19.8086 51.4187 20.3698 51.4593 20.5568 51.4052C20.9977 51.297 21.2115 50.7831 21.0378 50.3097C20.9042 49.9445 20.8374 49.931 18.6062 49.9716C18.045 49.9851 17.5507 49.931 17.5106 49.8634C17.4705 49.7957 17.5239 49.4035 17.6175 49.0113C17.7244 48.6055 17.8446 47.7535 17.898 47.1178C17.9648 46.1305 17.9515 45.9141 17.7644 45.7247C17.4705 45.4272 17.3369 45.4542 16.9628 45.8464C16.6689 46.1305 16.6288 46.3063 16.6021 47.226C16.5486 49.2818 16.5353 49.4576 16.3482 49.5658C16.1344 49.7011 14.4777 49.5793 14.304 49.417C14.2239 49.3494 14.2372 49.0248 14.3308 48.592C14.4109 48.1998 14.5445 47.2666 14.6381 46.5227C14.785 45.2108 14.7717 45.1702 14.4911 44.9403C14.1971 44.6968 13.9166 44.6562 13.5959 44.7915ZM82.7239 49.5929C82.6304 49.8634 82.7907 50.7019 82.951 50.8101C83.0312 50.8642 83.432 51.013 83.8328 51.1347C85.2891 51.5675 85.1689 51.3782 85.1689 53.1499V54.7053L84.8081 54.7729C84.5944 54.8135 84.247 54.9082 84.0199 54.9758C83.7927 55.057 83.5122 55.1111 83.3919 55.1111C82.7773 55.1111 82.3765 56.2201 82.8441 56.6123C83.0713 56.8017 82.9911 56.8287 85.1689 55.9631C85.6499 55.7738 86.4381 55.4762 86.9191 55.3139C87.4001 55.1381 88.0948 54.8811 88.4556 54.7324C88.8163 54.5971 89.4576 54.3672 89.8852 54.2319C90.2994 54.0967 90.7002 53.9209 90.767 53.8397C90.9407 53.6098 91.0609 52.9876 90.9674 52.7442C90.8872 52.5413 89.9386 52.0003 89.658 52.0003C89.5244 52.0003 86.0908 50.6478 85.2357 50.2421C84.3405 49.8363 83.2449 49.4306 83.0044 49.4306C82.8842 49.4306 82.764 49.5117 82.7239 49.5929ZM86.9859 52.2032C87.1997 52.3114 87.4669 52.4061 87.5871 52.4061C87.7074 52.4061 87.988 52.5007 88.1884 52.6089C88.4021 52.7171 88.7094 52.8118 88.8831 52.8118C89.1236 52.8118 89.1904 52.8794 89.1503 53.1094C89.1236 53.3393 88.9633 53.4475 88.469 53.5692C88.1216 53.6639 87.7608 53.7991 87.6673 53.8668C87.5738 53.9479 87.2264 54.0426 86.879 54.0967C86.3446 54.1778 86.2244 54.1508 86.1576 53.9614C86.1041 53.8397 86.1308 53.6774 86.2244 53.5827C86.3981 53.4069 86.4114 52.6901 86.2511 52.4061C85.9839 51.9868 86.3713 51.8786 86.9859 52.2032ZM16.4952 54.0832C14.8919 54.3537 13.7963 55.2328 13.2886 56.6123C12.4469 58.9792 13.5692 61.1973 15.9207 61.8195C16.8426 62.0629 17.1632 62.0629 18.2989 61.7789C19.4746 61.4948 20.4232 60.8592 21.0378 59.9395C21.4921 59.2497 21.5054 59.1956 21.5054 57.9513C21.4921 56.8017 21.452 56.5988 21.1313 56.0308C20.6904 55.2869 19.8487 54.4754 19.2475 54.2319C18.6195 53.975 17.4705 53.9073 16.4952 54.0832ZM18.9803 55.6926C19.3544 55.8955 19.7819 56.2472 19.9689 56.5312C20.2495 56.964 20.2896 57.1804 20.2762 58.046C20.2495 59.2227 20.0892 59.4661 18.9669 60.1288C18.3657 60.4805 18.1786 60.521 17.1231 60.521C16.0944 60.521 15.8672 60.4805 15.3595 60.1829C14.7049 59.7907 14.2239 58.871 14.2239 57.9919C14.2239 57.3697 14.8518 56.1931 15.3061 55.9631C16.8426 55.1651 17.8312 55.0975 18.9803 55.6926ZM82.136 58.8169C81.7352 59.6825 81.9356 59.7907 84.6344 60.2505C85.1822 60.3452 85.8903 60.5075 86.211 60.6022C86.5317 60.7104 87.2131 60.8592 87.7341 60.9268C88.2418 61.0079 88.7762 61.1297 88.9099 61.1973C89.5512 61.549 90.2459 61.1702 90.2459 60.494C90.2459 60.0747 90.139 60.0341 88.7094 59.7636C88.1216 59.6554 87.4402 59.4931 87.1863 59.412C86.9325 59.3308 86.398 59.2227 85.9839 59.1686C85.5697 59.1009 84.7547 58.9251 84.1668 58.7628C82.3765 58.2624 82.4032 58.2624 82.136 58.8169ZM82.6437 66.4585C82.1494 66.729 81.5615 67.5946 81.5615 68.0545C81.5615 68.2303 81.655 68.609 81.7753 68.9065C82.3364 70.3131 84.4207 70.3808 85.1154 69.0147C85.3693 68.5278 85.3559 67.5541 85.0887 67.1754C84.7814 66.729 83.8996 66.2015 83.4721 66.2015C83.2583 66.2151 82.8976 66.3233 82.6437 66.4585ZM19.528 68.1627C19.1139 68.6496 19.0203 68.893 18.9936 69.4205C18.9535 70.2861 19.2742 70.7324 20.1827 71.1652L20.9042 71.4898L21.5722 71.1246C22.3071 70.7189 22.5876 70.3808 22.7079 69.7045C22.8148 69.1229 22.601 68.5549 22.0666 67.9868C21.6925 67.5946 21.5856 67.554 20.8374 67.554C20.0357 67.554 20.0224 67.5676 19.528 68.1627ZM74.9213 71.9091C74.7609 72.139 74.1864 72.8017 73.652 73.3563C73.1042 73.9243 72.5431 74.5329 72.4095 74.7223C72.2625 74.9116 71.9418 75.2092 71.7147 75.3715C71.4742 75.5473 71.2738 75.7772 71.2738 75.8719C71.2738 75.9801 71.5009 76.2236 71.7815 76.44C72.356 76.8728 74.5071 78.8474 75.9901 80.3216C76.5646 80.8897 77.099 81.3495 77.1792 81.3495C77.2594 81.3495 77.8072 80.8221 78.4084 80.1729C78.9963 79.5237 79.8647 78.6175 80.3323 78.1576C81.0805 77.4138 81.174 77.2785 81.134 76.8728C81.1072 76.5076 81.0271 76.3994 80.7866 76.3723C80.5461 76.3318 80.2121 76.6158 79.2501 77.6437C78.5687 78.3605 77.914 79.1314 77.7804 79.3343C77.6335 79.5507 77.4331 79.7265 77.3262 79.7265C77.2059 79.7265 76.8719 79.4696 76.5646 79.145C76.2707 78.8204 75.8699 78.4687 75.6828 78.347L75.3488 78.1441L76.912 76.5752C78.2881 75.1821 78.4752 74.9657 78.3683 74.6952C78.1545 74.1001 77.7537 74.2354 76.578 75.3174C75.9768 75.8719 75.3622 76.5211 75.2152 76.751C75.0682 76.9674 74.8411 77.1568 74.6941 77.1568C74.3735 77.1568 73.1443 76.1154 73.1443 75.8313C73.1443 75.7231 73.7322 75.0063 74.4536 74.2624C75.1751 73.505 75.8832 72.7206 76.0168 72.5177C76.244 72.1525 76.244 72.139 75.95 71.8144C75.5359 71.3681 75.282 71.3951 74.9213 71.9091ZM30.938 74.9657C30.751 75.1686 30.2433 75.7637 29.8024 76.2912C28.6133 77.7113 26.5023 80.0241 26.1549 80.3081C25.9812 80.4434 25.8476 80.6598 25.8476 80.795C25.8476 81.1196 26.2618 81.4848 26.6493 81.4848C26.9699 81.4848 27.8384 80.6327 28.4797 79.6724C28.8404 79.145 29.0408 78.915 29.1878 78.915C29.2279 78.915 29.6821 79.3208 30.1898 79.8077C31.6595 81.2008 31.6729 81.2143 32.0202 81.2143C32.4478 81.2143 32.6616 80.9708 32.6616 80.511C32.6616 80.2675 32.568 80.0917 32.3676 79.9835C32.2073 79.9024 31.6996 79.5101 31.2453 79.1179C30.7911 78.7257 30.2967 78.3605 30.1364 78.3064C29.7623 78.1982 29.7757 78.063 30.2299 77.5761C30.4303 77.3461 30.7376 76.981 30.9247 76.7646C31.3121 76.2641 31.4858 76.2371 31.8198 76.6428C32.0336 76.9269 33.7304 78.4552 34.2916 78.9015C34.492 79.0503 34.5855 79.0503 34.8661 78.8609C35.4539 78.4687 35.307 78.09 34.2381 77.2109C33.1425 76.2912 31.9 75.1957 31.5526 74.8305C31.419 74.6952 31.2988 74.587 31.2854 74.587C31.272 74.587 31.1117 74.7629 30.938 74.9657ZM68.8689 77.6302C68.4681 77.9683 68.0138 78.2658 67.8668 78.3199C67.7199 78.374 67.3591 78.5769 67.0652 78.7663C66.2235 79.3073 66.0364 79.4155 65.3684 79.7401C64.9676 79.9159 64.7271 80.1188 64.7271 80.2675C64.7271 80.5516 65.1413 80.9438 65.4486 80.9438C65.7425 80.9438 66.6377 80.4839 66.8514 80.2134C66.9583 80.0917 67.132 79.997 67.2656 79.997C67.3992 79.997 67.5863 79.8888 67.6798 79.7671C68.0005 79.3884 68.8956 78.7798 69.0292 78.8609C69.1762 78.9556 69.0426 80.3352 68.8555 80.6868C68.7887 80.8085 68.6818 81.5118 68.615 82.2422C68.5482 82.9861 68.4013 84.2709 68.281 85.1095C67.9871 87.287 68.2543 87.6251 69.6171 86.7325C71.5811 85.4611 72.5564 84.866 72.69 84.8525C72.9439 84.839 74.0127 83.9599 74.0528 83.7299C74.1196 83.4189 73.8391 83.1078 73.505 83.1078C73.2512 83.1078 72.7969 83.3648 71.1803 84.4197C70.8062 84.6632 70.4321 84.866 70.3519 84.866C70.2851 84.866 70.1248 85.0013 70.0045 85.1636C69.8442 85.4206 69.7641 85.4476 69.5636 85.3124C69.4434 85.2312 69.3632 85.0824 69.39 84.9742C69.6304 84.1086 69.724 83.6217 69.9377 82.0934C70.4989 78.347 70.539 77.7519 70.2851 77.3732C69.9778 76.8998 69.724 76.9404 68.8689 77.6302ZM37.0572 79.0909C36.9503 79.1855 36.6163 79.7401 36.3357 80.3352C36.0552 80.9303 35.4272 82.0799 34.9462 82.8779C34.4652 83.6894 33.9308 84.5955 33.7571 84.9066C33.5834 85.2177 33.3563 85.5829 33.2361 85.7046C32.9689 86.0157 33.0624 86.3673 33.4899 86.6108C33.7972 86.7866 33.8907 86.7866 34.1847 86.6378C34.3717 86.5296 34.5588 86.3267 34.6122 86.178C34.6523 86.0292 35.0531 85.3124 35.4807 84.5955C35.9082 83.8652 36.2689 83.243 36.2689 83.1889C36.2689 83.1484 36.6564 82.4451 37.1374 81.6336C38.1261 79.9429 38.2329 79.4425 37.6317 79.1314C37.3511 78.9827 37.2175 78.9827 37.0572 79.0909ZM40.3439 80.8491C40.3172 80.9438 40.1702 81.4307 40.0233 81.9582C39.6358 83.3512 39.0747 85.0148 38.8609 85.4341C38.754 85.6234 38.6738 85.8669 38.6738 85.9616C38.6738 86.0562 38.4601 86.5837 38.1929 87.1518C37.6584 88.2473 37.6718 88.4772 38.3265 88.7207C38.567 88.8018 38.7674 88.8018 38.9143 88.7071C39.1415 88.5584 39.6893 87.1112 39.8629 86.2185C39.9698 85.5829 40.2771 85.5558 41.3193 86.0833C41.7602 86.2997 42.2545 86.489 42.3881 86.489C42.9626 86.489 43.6707 87.3817 43.3768 87.7469C43.2966 87.8415 43.2031 88.369 43.1497 88.9371L43.0561 89.965L43.4837 90.3301C43.7776 90.5736 44.0448 90.6818 44.272 90.6547C44.5659 90.6142 44.6193 90.5601 44.5792 90.2084C44.4857 89.4104 44.4991 88.7071 44.6193 87.9227C44.7129 87.2329 44.6995 87.0977 44.4991 86.9489C44.1651 86.719 44.3388 86.2726 44.8064 86.1103C45.0602 86.0157 45.3408 85.7316 45.5813 85.3124C46.5165 83.7029 45.6615 82.3639 43.2699 81.6877C42.9092 81.593 42.1209 81.3225 41.5063 81.0926C40.7314 80.8221 40.384 80.7409 40.3439 80.8491ZM42.0541 82.5668C42.3213 82.7156 42.6553 82.8373 42.8023 82.8373C43.2432 82.8373 44.2853 83.3783 44.4991 83.7299C44.6995 84.0275 44.6995 84.1086 44.4991 84.6496C44.2853 85.2177 43.8845 85.5423 43.3768 85.5423C43.2432 85.5423 42.8156 85.407 42.4148 85.2583C42.014 85.096 41.4529 84.9337 41.1856 84.9066C40.5043 84.8119 40.3974 84.6361 40.6379 83.9869C40.7447 83.6894 40.8917 83.1889 40.9719 82.8643C41.1188 82.2151 41.2925 82.161 42.0541 82.5668ZM61.8946 81.0926C61.5873 81.2684 61.5873 81.5795 61.8946 82.0934C62.0282 82.3098 62.2687 82.959 62.4424 83.5135C62.6027 84.0681 62.8299 84.6902 62.9368 84.8931C63.0437 85.0824 63.1238 85.3935 63.1238 85.5693C63.1238 85.7452 63.2173 86.0157 63.3242 86.1644C63.538 86.4485 63.5914 87.1653 63.4044 87.1653C63.3242 87.1653 62.7364 86.6378 62.0683 85.9751C61.4137 85.3259 60.5452 84.5009 60.1444 84.1492C59.7302 83.7976 59.1557 83.2566 58.8484 82.9455C58.3541 82.4451 58.2472 82.391 57.686 82.418C57.352 82.418 57.0314 82.4721 56.9646 82.5127C56.7374 82.6479 56.831 83.2295 57.3119 84.5955C57.4055 84.8525 57.5925 85.4611 57.7128 85.948C57.833 86.4349 58.0201 87.0706 58.1269 87.3682C58.2338 87.6792 58.314 88.0715 58.314 88.2473C58.3273 88.4366 58.4075 88.7342 58.5144 88.9235C58.6213 89.1129 58.7014 89.4104 58.7148 89.5998C58.7148 90.0867 59.0889 90.5736 59.4096 90.5195C59.5699 90.4924 59.8104 90.3166 59.9707 90.1002L60.2379 89.735L59.8237 88.4772C59.5832 87.801 59.316 87.0165 59.2359 86.7595C59.1423 86.5026 58.9019 85.9075 58.6881 85.4341C58.4743 84.9607 58.3407 84.5279 58.3808 84.4603C58.5678 84.1492 58.9553 84.4062 60.1043 85.5829C60.7723 86.2726 61.5873 87.0571 61.9214 87.3276C62.2554 87.5981 62.7898 88.085 63.1238 88.3961C63.6182 88.8694 63.8186 88.9776 64.2194 88.9641C64.5 88.9641 64.8206 88.883 64.9275 88.7883C65.1546 88.5989 65.1947 87.9633 65.0077 87.5981C64.9409 87.4764 64.7672 86.9354 64.6202 86.4214C64.4732 85.8939 64.1659 84.866 63.9522 84.1222C63.725 83.3783 63.4445 82.4045 63.3109 81.9582C63.1906 81.5118 63.0169 81.1061 62.9368 81.052C62.723 80.9032 62.1618 80.9303 61.8946 81.0926ZM48.7745 82.9455C48.7344 82.9861 48.6943 84.7984 48.6943 86.9759V90.9388L51.2061 90.9793C54.4528 91.0334 54.6398 91.0064 54.8269 90.5871C54.9337 90.3437 54.9337 90.1814 54.8269 89.9785C54.6799 89.708 54.6131 89.6945 52.3685 89.7891C49.683 89.8973 49.8701 90.0055 50.0037 88.3825C50.0972 87.4087 50.1106 87.3682 50.4312 87.3952C50.6183 87.4087 51.46 87.4493 52.3151 87.4899C53.8248 87.5575 53.8916 87.5575 54.2256 87.2329C54.6131 86.8677 54.6398 86.7731 54.4127 86.4485C54.2523 86.2591 54.0252 86.2456 52.3017 86.3403C51.2328 86.4079 50.2842 86.4214 50.1907 86.3808C50.0705 86.3403 50.0304 86.0292 50.0571 85.2177L50.0972 84.1222L52.2616 84.1763C53.8649 84.2033 54.4928 84.1763 54.6398 84.0545C54.8536 83.8787 54.9204 83.1754 54.72 83.0537C54.5596 82.9455 48.868 82.8373 48.7745 82.9455Z" fill="#BDBDBD"/>
</svg>
