<svg width="104" height="104" viewBox="0 0 104 104" fill="none" xmlns="http://www.w3.org/2000/svg">
<rect width="104" height="104" rx="8" fill="#121212"/>
<rect width="104" height="104" rx="8" fill="white" fill-opacity="0.05"/>
<path d="M14.6116 66.1427C11.6274 68.1347 12.6221 71.9194 18.9884 73.7121C25.5536 75.9032 32.7157 76.5008 39.6788 75.3056C40.0767 75.3056 40.4746 75.1064 40.6736 75.1064V68.3339L33.9094 70.525C31.3231 71.3218 28.7368 71.521 26.1505 70.9234C24.161 70.3258 24.5589 69.1306 26.9463 68.1347L40.6736 63.354V55.9839L21.5747 62.5573C19.1873 63.354 16.8 64.5492 14.6116 66.1427ZM60.7671 36.2637V55.5855C68.9239 59.5694 75.2902 55.5855 75.2902 45.2274C75.2902 34.6702 71.5102 29.8895 60.5682 26.1048C54.7987 24.1129 48.8304 22.3202 42.862 21.125V78.6919L56.7882 82.875V34.471C56.7882 32.2798 56.7882 30.6863 58.3798 31.2839C60.5682 31.8815 60.7671 34.0726 60.7671 36.2637ZM86.6302 61.5613C80.8607 59.5694 74.6934 58.7726 68.725 59.3702C65.5419 59.5694 62.5577 60.3661 59.7724 61.3621L59.1756 61.5613V69.3298L72.1071 64.5492C74.6934 63.7524 77.2797 63.5532 79.866 64.1508C81.8555 64.7484 81.4576 65.9436 79.0702 66.9395L59.1756 74.3097V81.879L86.6302 71.7202C88.6196 70.9234 90.4102 69.9274 92.0017 68.3339C93.3944 66.3419 92.7975 63.5532 86.6302 61.5613Z" fill="#BDBDBD"/>
</svg>
