<svg width="104" height="104" viewBox="0 0 104 104" fill="none" xmlns="http://www.w3.org/2000/svg">
<rect width="104" height="104" rx="8" fill="#121212"/>
<rect width="104" height="104" rx="8" fill="white" fill-opacity="0.05"/>
<path fill-rule="evenodd" clip-rule="evenodd" d="M0 0H104V104H0V0Z" fill="#121212"/>
<path fill-rule="evenodd" clip-rule="evenodd" d="M0 0H104V104H0V0Z" fill="white" fill-opacity="0.05"/>
<path fill-rule="evenodd" clip-rule="evenodd" d="M56.1806 51.5492C56.1806 51.5492 55.3395 51.0291 54.8193 50.8278C54.8193 50.8278 53.2094 50.0816 52.8899 49.7266C52.8899 49.7266 52.2625 49.1353 52.6299 48.4484C52.6299 48.4484 52.7837 47.999 53.4468 47.999C53.4468 47.999 54.31 48.0465 54.31 48.756V49.7568H57.4038L57.3984 48.2828C57.3984 48.2828 57.6363 45.8689 53.7543 45.7626C53.7543 45.7626 50.701 45.5619 49.8254 47.2064C49.8254 47.2064 49.4817 47.5733 49.4817 48.8509V49.7741C49.4817 49.7741 49.4466 50.8391 49.9905 51.5254C49.9905 51.5254 50.298 51.9754 51.0555 52.4718C51.0555 52.4718 52.5937 53.3 53.5169 53.7742C53.5169 53.7742 54.4487 54.3062 54.3262 55.1528C54.3262 55.1528 54.2501 56.022 53.3502 55.9864C53.3502 55.9864 52.5274 55.9497 52.5274 55.0972V54.0969H49.2308V55.5499C49.2308 55.5499 49.1385 58.3285 53.3745 58.3285C53.3745 58.3285 57.4221 58.4105 57.6109 55.477V54.2938C57.6104 54.2938 57.7539 52.4961 56.1806 51.5492ZM40.3418 46.1084L39.3059 52.6002H39.0637L38.0741 46.1667H32.9064L32.6474 57.9228H35.7072L35.7439 49.0651H35.9845L37.6064 57.9212H40.8253L42.4272 49.0684H42.6403L42.7142 57.9228H45.7901L45.4588 46.1084H40.3418ZM22.128 46.1575L20.0923 57.9093H23.3862L24.5921 48.7975H24.8629L26.0683 57.9093H29.3616L27.3265 46.1575H22.128ZM91.2443 51.3873V53.1209H92.0892V54.9817C92.0892 55.8914 91.3118 55.9081 91.3118 55.9081C90.3665 55.9081 90.4021 55.0438 90.4021 55.0438V48.607C90.4021 47.9439 91.2411 47.9083 91.2411 47.9083C92.0461 47.9083 92.0515 48.6993 92.0515 48.6993V49.678H95.1528C95.2542 47.7675 94.8733 47.3051 94.8733 47.3051C94.1039 45.5775 91.1936 45.6719 91.1936 45.6719C86.7214 45.6719 87.2177 49.1034 87.2177 49.1034V55.3271C87.3138 58.5454 91.7207 58.2185 91.7952 58.2158C93.7554 57.9989 94.3472 57.3757 94.3472 57.3757C94.8922 56.971 95.0324 56.4105 95.0324 56.4105C95.1884 56.084 95.2272 55.0438 95.2272 55.0438V51.3873H91.2443ZM80.9644 53.3H80.8296L77.6824 46.1117H73.917V57.9239H76.9816L76.7981 50.7366H76.9352L80.1956 57.9239H83.8467V46.1106H80.7432L80.9644 53.3ZM66.4362 54.9807C66.4362 54.9807 66.4805 55.9502 65.5816 55.9502C65.5816 55.9502 64.6363 56.0009 64.6363 55.0049L64.6266 46.1187H61.2653V54.9343C61.2653 54.9343 60.9205 58.2708 65.6291 58.2708C65.6291 58.2708 69.7209 58.3194 69.7209 55.0875V46.1192H66.4362V54.9807ZM15.7199 51.5492C15.7199 51.5492 14.8798 51.0291 14.3591 50.8283C14.3591 50.8283 12.7502 50.0827 12.4308 49.7271C12.4308 49.7271 11.8033 49.1347 12.1713 48.4495C12.1713 48.4495 12.3245 48.0001 12.9871 48.0001C12.9871 48.0001 13.8509 48.047 13.8509 48.7565V49.7574H16.9457L16.9398 48.2828C16.9398 48.2828 17.1761 45.8689 13.2957 45.7631C13.2957 45.7631 13.0033 45.7442 12.5743 45.7658C12.5743 45.7658 10.2236 45.8921 9.38295 47.1816C9.37809 47.1913 9.37108 47.1983 9.36622 47.2069C9.36622 47.2069 9.02307 47.5733 9.02307 48.8515V49.7746C9.02307 49.7746 8.98746 50.8397 9.53186 51.526C9.53186 51.526 9.8394 51.976 10.5969 52.4723C10.5969 52.4723 12.1346 53.3005 13.0578 53.7748C13.0578 53.7748 13.9906 54.3057 13.8671 55.1533C13.8671 55.1533 13.791 56.0225 12.8916 55.9869C12.8916 55.9869 12.0688 55.9502 12.0688 55.0977V54.0969H8.77165V55.551C8.77165 55.551 8.67938 58.3296 12.9153 58.3296C12.9153 58.3296 16.9619 58.4116 17.1523 55.4781V54.296C17.1523 54.2949 17.2937 52.4961 15.7199 51.5492Z" fill="#BDBDBD"/>
</svg>
