<svg width="104" height="104" viewBox="0 0 104 104" fill="none" xmlns="http://www.w3.org/2000/svg">
<rect width="104" height="104" rx="8" fill="#121212"/>
<rect width="104" height="104" rx="8" fill="white" fill-opacity="0.05"/>
<path d="M8.04228 56.0134C6.66234 55.5264 6.54059 55.1205 6.52029 50.6966L6.5 47.1859H8.52932L8.5699 50.6966L8.63078 54.187L9.11782 54.2479C9.38163 54.2885 9.68603 54.2073 9.7672 54.045C9.86866 53.9029 9.94984 52.2998 9.94984 50.4937V47.1859H11.8168L11.7356 50.8995C11.695 54.0044 11.6139 54.6943 11.3298 55.1611C10.6804 56.1352 9.34104 56.5004 8.04228 56.0134ZM44.5091 56.1757C43.7785 56.0337 42.9059 54.9987 42.6421 54.0044C42.358 52.8479 42.358 50.4736 42.6421 49.2964C43.3118 46.6177 46.8225 46.3944 47.7357 48.9717C47.8778 49.3978 47.9995 50.6154 47.9995 51.8533C47.9995 53.7 47.9386 54.0856 47.5328 54.8161C47.269 55.2626 46.8834 55.7293 46.6805 55.8513C46.234 56.1352 45.1179 56.2975 44.5091 56.1757ZM45.8687 53.9029C46.2543 52.9694 46.0717 49.5399 45.6252 49.0731C45.2802 48.7485 45.2396 48.7485 44.9149 49.0731C44.6106 49.3775 44.5497 49.8037 44.5497 51.6301C44.5497 53.1927 44.6308 53.9232 44.8338 54.1464C45.2396 54.6538 45.5846 54.5726 45.8687 53.9029ZM51.1652 56.1149C49.6027 55.7496 49.3389 54.8973 49.3186 50.3922V47.1859H51.3479V50.514C51.3479 54.0044 51.4493 54.4102 52.3017 54.2479C52.7885 54.1669 52.951 53.1523 52.951 49.8849L52.9713 47.1859H54.6356L54.5544 51.001C54.4935 54.9987 54.3921 55.4452 53.4789 55.8918C52.8496 56.196 51.9161 56.2975 51.1652 56.1149ZM13.1967 51.6301V47.125L15.1449 47.2265C16.9916 47.3279 17.1133 47.3685 17.7221 47.9773C18.3106 48.5455 18.3715 48.7282 18.3715 49.8849C18.3715 50.8792 18.27 51.2851 17.8845 51.8127L17.4177 52.4824L17.9453 54.0044C18.2497 54.8366 18.5541 55.6684 18.615 55.8308C18.7165 56.0948 18.5338 56.1352 17.6409 56.0743L16.5451 56.0134L16.0581 54.3494C15.7943 53.4159 15.4899 52.665 15.3884 52.665C15.3072 52.665 15.2261 53.4362 15.2261 54.39V56.1149H13.1967V51.6301ZM16.3016 50.3719C16.5451 49.6211 16.2001 48.8093 15.6319 48.8093C15.2666 48.8093 15.2261 48.9311 15.2261 49.9458C15.2261 50.9807 15.2666 51.0619 15.6725 51.001C15.9363 50.9604 16.1798 50.7169 16.3016 50.3719ZM19.8529 51.6301L19.9138 47.1453L21.9634 47.2265C23.8912 47.3076 24.0333 47.3279 24.4797 47.8556C25.0682 48.5455 25.1697 50.2704 24.6421 51.001C24.358 51.4272 24.358 51.488 24.7435 51.9751C25.2509 52.6244 25.3118 54.2278 24.8856 55.0801C24.4594 55.8918 23.7492 56.1151 21.659 56.1151H19.792L19.8529 51.6301ZM22.7548 54.2885C22.9983 54.1464 23.1404 53.8623 23.1404 53.5173C23.1404 52.7866 22.9375 52.523 22.2678 52.3606L21.7199 52.2186V53.3552C21.7199 54.5726 21.9025 54.7349 22.7548 54.2885ZM22.6534 50.6763C23.3433 50.2096 22.9578 48.8093 22.1257 48.8093C21.7807 48.8093 21.7199 48.9514 21.7199 49.824C21.7199 50.656 21.7807 50.8386 22.0851 50.8386C22.2678 50.8386 22.5316 50.7575 22.6534 50.6763ZM25.8597 55.7699C25.9206 55.567 26.3264 53.7812 26.7729 51.8127C27.2193 49.8443 27.6455 47.9976 27.7266 47.7135C27.8484 47.2468 27.9499 47.1859 28.8225 47.1859C29.5936 47.1859 29.8371 47.2671 29.9183 47.5512C29.9589 47.7338 30.385 49.5805 30.8518 51.6504C31.3185 53.7203 31.7447 55.567 31.7853 55.7699C31.8867 56.054 31.7447 56.1149 30.8924 56.1149C29.8168 56.1149 29.6342 55.9119 29.6342 54.7552C29.6342 54.3494 29.5327 54.2885 28.8225 54.2885C28.1122 54.2885 28.0107 54.3494 27.889 54.8567C27.6049 56.1352 27.6252 56.1149 26.6714 56.1149C25.88 56.1149 25.7582 56.054 25.8597 55.7699ZM29.2283 52.523C29.208 52.4215 29.0863 51.8533 28.9442 51.2445L28.6804 50.1284L28.4572 51.2039C28.1325 52.6449 28.1325 52.665 28.721 52.665C29.0051 52.665 29.2283 52.6042 29.2283 52.523ZM32.6782 51.6504V47.1859H34.606L35.3163 49.2558L36.0265 51.3054L36.0874 49.2558L36.1483 47.1859H37.7515V56.1352L36.9194 56.0743L36.0874 56.0134L35.1945 53.6797L34.3219 51.346V53.7406L34.3016 56.1149H32.6782V51.6504ZM56.827 52.665V49.2152H55.4065V47.1859H60.2769V49.2152H58.8563V56.1149H56.827V52.665ZM61.2915 51.6504V47.1859H65.756V49.0123H63.3208V51.0416H65.1472V52.665H63.3208V56.1149H61.2915V51.6504ZM66.5677 51.6504V47.1859H68.5971V56.1149H66.5677V51.6504ZM71.0322 52.665V49.2152H69.6117V47.1859H74.4821V49.2152H72.8586V56.1149H71.0322V52.665ZM76.1055 52.665V49.2152H74.685V47.1859H79.5554V49.2152H77.9319V56.1149H76.1055V52.665ZM80.3671 51.6504V47.1859H85.0345V49.0123H82.3964V50.8386H84.4257V52.4621H82.3964V54.2885H85.0345V56.1149H80.3671V51.6504ZM86.2521 51.6504V47.1859L87.7335 47.2062C89.702 47.2062 90.5137 47.5106 90.9804 48.4035C91.4675 49.3572 91.366 51.0213 90.7369 51.8533L90.2907 52.4621L90.9197 54.2073C91.2444 55.1611 91.5285 55.9728 91.5285 56.0337C91.5285 56.2571 89.4789 56.0948 89.3978 55.8713C89.3572 55.7293 89.1137 54.9379 88.8904 54.1464C88.6469 53.3347 88.3628 52.665 88.2613 52.665C88.1599 52.665 88.0787 53.4362 88.0787 54.39V56.1149H86.2521V51.6504ZM89.0526 50.7981C89.1946 50.656 89.2961 50.2704 89.2961 49.9255C89.2961 49.2152 88.9917 48.8093 88.4438 48.8093C88.1394 48.8093 88.0785 48.992 88.0785 49.9255C88.0785 50.8589 88.1394 51.0416 88.4438 51.0416C88.6467 51.0416 88.9105 50.9401 89.0526 50.7981ZM93.4156 55.9119C92.8677 55.6887 92.1371 54.5726 92.1371 53.9638C92.1371 53.6594 92.2995 53.4768 92.6242 53.3954C92.888 53.3345 93.233 53.233 93.3953 53.1722C93.5577 53.1113 93.7606 53.2939 93.9026 53.6795C94.065 54.1462 94.2679 54.2883 94.6535 54.2883C94.9374 54.2883 95.2623 54.1259 95.3637 53.923C95.6476 53.3751 95.2217 52.8475 93.9836 52.2791C92.8271 51.7311 92.3399 50.96 92.3399 49.6815C92.3399 48.7886 92.9081 47.7334 93.598 47.3681C93.8416 47.2261 94.4503 47.1246 94.9577 47.1449C95.6474 47.1449 95.9723 47.2666 96.4186 47.7334C96.723 48.0378 97.0479 48.5451 97.1085 48.8292C97.2303 49.2757 97.1491 49.3974 96.6012 49.6207C95.9924 49.8642 95.9315 49.8642 95.4851 49.296C95.0792 48.8089 94.9372 48.748 94.6328 48.9307C94.4298 49.0524 94.2675 49.3771 94.2675 49.6207C94.2675 50.0062 94.511 50.2294 95.4445 50.6759C96.1753 51.0412 96.7636 51.5079 97.0071 51.9138C97.7782 53.1519 97.3724 55.0797 96.2156 55.7695C95.587 56.1352 94.1664 56.2163 93.4156 55.9119Z" fill="#BDBDBD"/>
</svg>
