<svg width="104" height="104" viewBox="0 0 104 104" fill="none" xmlns="http://www.w3.org/2000/svg">
<rect width="104" height="104" rx="8" fill="#121212"/>
<rect width="104" height="104" rx="8" fill="white" fill-opacity="0.05"/>
<path d="M90.9475 50.7277C88.8305 53.8449 85.0298 55.7118 81.8293 57.4788C72.5612 62.5296 61.7761 64.6966 50.5076 63.8131C42.923 63.4964 36.0386 61.246 28.5207 60.5459L20.1027 59.7791C19.986 59.6625 19.7359 59.6458 19.8026 59.4124C19.936 59.0457 19.936 58.629 20.3027 58.4456C23.6366 58.5123 26.7371 58.9957 29.8709 59.4124L44.5233 61.5128C54.6416 62.913 65.3267 62.3296 74.3114 59.029C80.2457 57.0787 85.6466 53.7115 90.7641 49.7942C91.0641 49.9776 90.9975 50.411 90.9308 50.711L90.9475 50.7277ZM91.9976 49.0941V48.9441C91.9976 48.7607 91.981 48.5773 91.9643 48.394C91.4976 47.1771 90.4307 46.427 89.3472 45.9102C82.9462 43.8432 76.9285 40.8928 70.9776 37.9256C67.9604 36.5421 64.7599 35.6753 61.4427 35.0085C58.5756 34.425 55.6918 34.1417 52.8246 34.125H52.5246C46.6903 34.1417 40.956 35.2418 35.7219 37.0755C28.3207 39.7926 21.6196 44.5267 13.3516 45.0434L12.7348 45.5769C12.4181 46.5437 11.7847 47.6272 12.1347 48.7274L17.6023 58.729C18.069 59.4124 18.3024 60.4459 19.2692 60.646L23.4532 60.7793C24.7868 61.046 26.437 60.7126 27.5039 61.7128C28.3873 63.063 26.8371 64.9133 28.204 66.1635C29.8709 67.7138 32.0546 68.2972 34.4217 68.3472C36.4887 68.1972 38.739 67.9471 39.9225 66.1968C40.4893 65.3634 40.0892 63.7131 41.4895 63.5631L45.6735 64.2465C53.6081 65.13 62.1095 64.9133 69.6107 63.2297C70.0941 63.1797 70.8275 63.1297 71.1276 63.6131C71.5277 64.6633 72.0611 65.8801 73.2613 66.2635C76.9452 66.947 80.3791 65.7301 83.0962 63.4131C84.6464 62.0462 85.0465 59.9292 84.8298 57.8622C85.3299 57.0287 86.3634 56.7287 87.1135 56.0785C89.2305 54.2116 91.981 52.0779 92.031 49.1108L91.9976 49.0941ZM83.0962 61.3961C82.9128 61.6961 82.4794 61.5628 82.2461 61.4961C80.079 60.6626 77.6286 61.5961 75.9617 63.1297C74.9782 63.4797 74.6282 66.0802 73.2613 64.5966C72.9612 64.3466 73.0279 63.9298 73.1613 63.6298C75.3283 61.3627 77.962 59.8292 81.0125 59.7125C81.796 59.7791 82.7795 59.5624 83.1962 60.2959C83.2462 60.6626 83.3629 61.146 83.1129 61.3961H83.0962ZM81.3626 63.2464C80.1791 64.6299 78.7122 65.33 76.9619 65.3467C76.6618 65.2134 76.2951 65.2134 76.1284 64.8466C76.0284 64.0632 76.6451 63.5798 77.1286 63.0963C78.1787 62.1962 79.529 61.7461 80.9792 62.0128L81.3459 62.2629C81.5793 62.5129 81.5126 62.8796 81.3959 63.2297L81.3626 63.2464ZM39.0057 65.8135C38.9391 65.9968 38.8224 66.1802 38.639 66.2302L38.2723 66.1635C36.0719 63.5798 32.138 63.1964 28.9541 64.1132C28.6541 64.0465 28.6541 63.7465 28.6541 63.4964C28.6541 63.013 28.9708 62.5296 29.4709 62.2962C32.8214 61.8128 36.322 62.2962 38.839 64.4799C39.2558 64.7299 39.0724 65.3967 38.9891 65.8135H39.0057ZM36.0052 67.0303C34.0549 67.4804 31.5712 67.3637 30.2543 65.8301C30.1376 65.3467 30.4543 65.0467 30.8211 64.8133C32.7047 64.2965 34.8884 64.7133 36.3886 65.7634L36.622 66.1302C36.622 66.5636 36.3053 66.847 36.0052 67.0303ZM18.4191 52.428C18.069 51.6278 17.5356 50.9611 17.3022 50.0942C17.6689 49.7942 18.1024 49.6942 18.5191 49.6275C18.9358 50.361 19.3359 51.1611 19.5693 51.9612C19.2025 52.1946 18.7691 52.5613 18.4024 52.428H18.4191ZM20.186 48.7607C20.7194 49.4441 20.8195 50.2943 21.3029 51.0277C21.0528 51.3945 20.5027 51.4945 20.136 51.6778C19.786 51.0111 19.2525 50.2109 19.0192 49.3441C19.2692 49.0441 19.7026 48.8107 20.186 48.7607ZM24.6034 49.8775C25.3202 50.0776 25.987 50.4443 26.4037 51.0111C27.4039 52.6113 27.4205 54.795 26.7204 56.4786C26.2203 57.3788 25.3035 57.7955 24.32 57.8955C23.2198 57.9288 22.2697 57.3788 21.7363 56.3953C21.0362 54.8617 20.8361 52.6113 21.7196 51.1111C22.403 50.2109 23.4532 49.4441 24.6034 49.8942V49.8775ZM27.6372 49.9276C29.0375 49.7109 30.5544 49.6775 32.0213 49.5775L32.138 49.8275L32.288 51.2944C32.2213 51.4111 32.1046 51.4778 31.9213 51.5278L30.1543 51.6778C29.9043 52.0446 30.071 52.5947 30.1376 53.0114C30.5544 53.3781 31.2878 53.1614 31.8379 53.1614L32.0213 53.3448L32.1046 55.045C31.6212 55.3951 30.7711 55.0784 30.271 55.4284C30.1376 56.2786 30.3543 57.1287 30.2877 58.0455C29.6209 58.0289 28.8374 57.8955 28.1706 57.7622L27.9873 57.5121L27.5705 50.0442L27.6372 49.9276ZM37.4221 49.3108L37.4721 49.4942L37.5055 51.0111C36.8387 51.1778 36.1719 51.1778 35.4385 51.2778C35.1218 51.6945 35.4218 52.2446 35.4051 52.7947C35.9386 53.1114 36.4887 52.7613 37.1554 52.878C37.3221 53.3614 37.2554 54.0949 37.3055 54.7117C36.7554 54.8784 36.1553 54.8117 35.5385 54.9784C35.3385 56.3119 35.6719 57.5288 35.5885 58.8123C34.9217 58.8623 34.1383 58.5956 33.4715 58.5289C33.1548 55.5451 32.9047 52.6947 32.8547 49.5942C34.3716 49.3775 35.8386 49.2274 37.4221 49.3108ZM38.0556 37.9089C38.9891 40.226 39.4891 42.7264 40.2893 45.0434L40.5893 44.8601L41.9395 37.7756L42.1229 37.5422L61.0926 36.3754C61.6927 36.5087 62.8096 35.8586 62.7929 36.8254C62.6596 37.2422 63.0763 37.9256 62.5262 38.159L45.8068 39.1925L44.0399 39.3425L43.7898 39.6926L42.2396 47.7439L41.9395 47.8606L39.1391 47.9939L38.789 47.4938C37.8222 44.3266 36.722 41.2095 35.7552 38.0256C36.4887 37.9089 37.3388 37.8089 38.0722 37.8923L38.0556 37.9089ZM58.5756 47.8105L58.7589 47.8772C58.8756 48.4273 58.8589 49.0274 58.8423 49.5775L56.6586 49.8942L56.4752 50.1276L56.7753 53.4115C57.3254 53.6615 58.0421 53.4281 58.5922 53.5615C58.6922 54.2282 58.8089 54.9617 58.7423 55.5618C58.2588 55.8618 57.6421 55.6618 57.092 55.8452L56.9586 56.0285L57.142 59.1957L57.442 59.4458L59.509 59.4791C59.7424 59.9625 59.7257 60.5793 59.7257 61.1294C58.2588 61.4127 56.6252 61.3794 55.0417 61.4127L54.925 60.9793L54.1082 49.4942L54.0748 48.1606C55.5417 47.8772 57.0586 47.9106 58.5756 47.8105ZM52.6913 43.9933C52.5746 43.9266 52.5746 44.0599 52.5079 44.1099L52.6413 46.9604C52.1579 47.2605 51.4911 47.0604 50.8743 47.1771L50.7576 46.8104C50.6076 44.7434 50.4076 42.4263 50.4576 40.3093C51.0743 40.1426 51.7911 40.0926 52.4579 40.0426L52.7079 40.176L54.4749 42.9431L54.7249 42.8931C54.6083 42.093 54.6916 41.0094 54.5916 40.0426C55.1417 39.8093 55.9251 39.8759 56.5419 39.8926C56.7419 42.2096 56.8753 44.51 56.9586 46.7604C56.2252 46.9937 55.375 46.8604 54.6583 46.8937C53.9415 45.9102 53.4747 44.9934 52.7079 44.0099L52.6913 43.9933ZM45.4734 46.477L45.2734 47.5605C44.6566 47.6772 43.9399 47.7105 43.3898 47.6439C43.8565 45.2268 44.3899 42.9264 44.9734 40.6261C45.8235 40.3427 46.9737 40.3593 47.8905 40.376L48.5906 42.143L50.1909 47.1438C49.6408 47.3771 48.974 47.2438 48.3072 47.3438C48.0072 46.9104 48.1405 46.0603 47.4238 46.0603C46.757 46.1103 45.9068 45.9102 45.4734 46.4437V46.477ZM44.3733 60.2959L44.3066 60.4793L42.3729 60.1959C42.0729 57.1621 41.8729 54.1116 41.5728 51.0777L41.4561 50.8944L39.6892 50.9277C39.7058 50.3276 39.4058 49.5942 39.7225 49.0441C41.6062 48.8941 43.6065 48.8107 45.4901 48.7274L45.6735 48.9107L45.7068 50.5443C45.1567 50.661 44.5566 50.711 43.9399 50.6943L43.7565 50.9277L44.3733 60.2959ZM49.3407 60.8793L49.1574 60.9293L47.0904 60.7126L46.9237 60.0959L46.3402 48.9774L46.4069 48.6107C47.0237 48.494 47.7405 48.5773 48.4072 48.4607C48.7406 50.2276 48.7073 51.9946 48.9073 53.8115C49.3241 54.1949 50.0575 53.8949 50.6076 53.9115L50.741 53.7282L50.4743 48.444C51.091 48.2106 51.8745 48.1606 52.6079 48.1773L52.7246 48.4773L53.5247 60.996C53.5914 61.1127 53.4581 61.246 53.3414 61.2294C52.6079 61.1627 51.8245 61.3794 51.2744 60.946L50.941 56.3286C50.4076 56.0785 49.7241 56.3619 49.174 56.3619L49.0574 56.5453L49.3407 60.8627V60.8793ZM62.2762 41.2595C61.5594 41.0094 60.6592 40.376 59.8591 40.9094C59.6091 41.1428 59.4257 41.5095 59.6591 41.7596C60.8593 42.5764 62.9263 41.9429 63.5097 43.7099C63.7931 44.4433 63.6597 45.4102 63.1096 45.9436C62.1761 46.9604 60.7759 47.2438 59.3924 46.9104C58.7923 46.7104 58.0588 46.577 57.5254 46.1436C57.7254 45.5435 58.0255 45.1268 58.4089 44.71C59.1423 44.8434 59.8591 45.3435 60.7592 45.1768C61.126 45.1768 61.4927 45.0101 61.6261 44.6434C61.6594 43.3098 60.0091 43.9433 59.159 43.6265C58.3755 43.4932 57.7254 42.8097 57.4921 42.0763C57.3254 41.2762 57.4587 40.4927 58.0088 39.9593C59.359 38.8924 61.6094 38.9258 63.0429 39.8759C63.093 40.3593 62.6596 40.8928 62.2928 41.2595H62.2762ZM64.8266 47.4438C65.4433 47.1438 66.2935 47.3438 66.9603 47.2438L67.2436 47.9106C67.5103 49.6108 67.8437 51.3278 68.2438 53.0281C68.4938 52.978 68.4272 52.6613 68.4438 52.428L68.7772 47.6439C68.6605 47.5272 68.8439 47.2771 68.8439 47.1604C69.4607 46.9937 70.1774 47.0104 70.8442 47.0104C70.7609 51.1944 70.5108 55.2617 70.1941 59.2624C69.344 59.5458 68.4772 59.8292 67.627 59.9458C67.1103 58.4789 66.8936 57.012 66.5435 55.5618C66.2935 55.5618 66.3602 55.8618 66.3602 56.1119L65.9101 60.3626C65.11 60.7126 64.1431 60.6293 63.293 60.796L63.0596 60.2459L60.4425 47.8105L60.6259 47.6939L62.9263 47.5605L63.1596 47.8606C63.3597 49.9942 63.7597 52.0612 64.1431 54.1282C64.5432 51.9445 64.5932 49.7609 64.8099 47.4605L64.8266 47.4438ZM72.1278 47.0271C72.8112 46.677 73.778 46.8104 74.6282 46.7104C75.9117 46.377 75.4616 47.9939 75.8617 48.6107C76.4284 51.2944 77.0952 53.9782 77.5953 56.712C76.9785 57.062 76.3784 57.3621 75.645 57.4121C75.4783 56.9787 75.4283 56.4286 75.1949 56.0119C74.7782 55.8285 74.2781 56.1786 73.8614 56.2286C73.428 56.762 73.6447 57.6288 73.4613 58.2789C72.7278 58.5123 72.0611 58.8623 71.3276 58.9123L71.2776 58.6123L72.1611 47.0271H72.1278ZM79.6123 46.377L79.729 46.8104C79.8623 49.1274 79.829 51.2444 80.2124 53.4948C80.5791 53.6282 80.9458 53.2614 81.3792 53.1447C81.6126 53.6948 81.5459 54.2949 81.5293 54.845C80.4291 55.5451 79.2622 56.0785 78.0954 56.4786C77.7787 53.3781 77.6786 49.7942 77.612 46.577C78.2287 46.4103 78.9455 46.3603 79.6123 46.377ZM83.6296 46.0936L83.7463 46.4603C83.963 48.0439 83.863 49.6108 84.1464 51.1444C84.7465 51.1611 85.1799 50.6777 85.7299 50.511C86.03 50.9944 86.08 51.7278 86.0633 52.3446C84.7798 53.0447 83.4796 53.9449 82.0794 54.5116C81.8293 51.8945 81.746 49.0441 81.6293 46.3103C82.2461 46.1436 82.9628 46.0936 83.6296 46.1103V46.0936ZM85.3466 45.4602C85.83 45.5268 86.3134 45.6602 86.6134 45.8436L85.5966 48.4273C85.1132 48.3606 84.7465 48.2273 84.3964 47.9106C84.6464 47.0604 84.9132 46.1603 85.3466 45.4435V45.4602ZM88.3637 46.427C88.047 47.3271 87.847 48.294 87.2802 49.0107L86.1967 48.6273C86.3967 47.7272 86.7801 46.8104 87.2802 45.9769L88.3637 46.427Z" fill="#BDBDBD"/>
<path d="M24.4366 55.8619C25.3701 54.9118 24.72 53.4449 24.6199 52.278C24.4366 51.9113 23.7865 51.5946 23.4698 52.0113C23.0864 53.0448 23.2364 54.3783 23.5198 55.4118C23.6365 55.7786 24.0532 55.9119 24.4199 55.8453L24.4366 55.8619ZM74.7447 53.6949C74.6447 52.6614 74.4113 51.5612 74.1279 50.5944C73.9279 51.6279 73.8446 52.7781 73.8779 53.8116C74.178 53.9449 74.478 53.8783 74.728 53.7116L74.7447 53.6949ZM46.0901 44.31C46.3901 44.4934 46.7569 44.3767 47.0569 44.2767C46.9402 43.7266 46.7069 43.1765 46.4235 42.6931C46.1734 43.1765 46.2234 43.7766 46.0901 44.3267V44.31ZM87.6968 57.8456C87.6468 57.8289 87.5968 57.8122 87.5134 57.8122H87.4301V58.1623H87.5468C87.6135 58.1623 87.6801 58.1456 87.7135 58.129C87.7468 58.0956 87.7802 58.0456 87.7802 57.9789C87.7802 57.9123 87.7468 57.8622 87.6801 57.8456H87.6968ZM87.1301 58.7957V57.6122H87.6968C87.7968 57.6122 87.8635 57.6455 87.9302 57.6789C88.0302 57.7289 88.0802 57.8289 88.0802 57.9623C88.0802 58.0623 88.0469 58.129 87.9969 58.179C87.9468 58.229 87.8802 58.2456 87.7968 58.2623C87.8802 58.279 87.9302 58.2956 87.9635 58.329C88.0302 58.379 88.0802 58.479 88.0635 58.5957V58.7624L88.0802 58.7957H87.7968C87.7802 58.7624 87.7802 58.7124 87.7802 58.629C87.7802 58.5624 87.7635 58.5123 87.7635 58.479C87.7468 58.429 87.7135 58.4123 87.6801 58.3957C87.6635 58.3957 87.6301 58.379 87.5635 58.379H87.4301V58.7957H87.1301ZM86.98 57.5955C86.8133 57.7622 86.73 57.9789 86.73 58.2123C86.73 58.4623 86.8133 58.6624 86.9967 58.8457C87.1634 59.0124 87.3801 59.0958 87.6135 59.0958C87.8468 59.0958 88.0635 59.0124 88.2302 58.8457C88.3969 58.679 88.4803 58.4623 88.4803 58.229C88.4803 57.9956 88.3969 57.7789 88.2302 57.6122C88.0469 57.4288 87.8468 57.3455 87.6135 57.3455C87.3634 57.3455 87.1634 57.4288 86.98 57.6122V57.5955ZM88.3469 58.9791C88.1302 59.1791 87.8968 59.2791 87.5968 59.2791C87.2967 59.2791 87.0467 59.1791 86.83 58.9624C86.63 58.7624 86.53 58.4957 86.5133 58.2123C86.5133 57.8956 86.63 57.6455 86.8467 57.4288C87.0634 57.2288 87.2967 57.1455 87.5801 57.1288C87.8802 57.1288 88.1302 57.2288 88.3302 57.4455C88.5469 57.6622 88.647 57.9123 88.647 58.2123C88.647 58.5123 88.5469 58.7791 88.3302 58.9791H88.3469Z" fill="#BDBDBD"/>
</svg>
