<svg width="20" height="20" viewBox="0 0 20 20" fill="none" xmlns="http://www.w3.org/2000/svg">
<path d="M10 1.66699C5.40002 1.66699 1.66669 5.40033 1.66669 10.0003C1.66669 14.6003 5.40002 18.3337 10 18.3337C14.6 18.3337 18.3334 14.6003 18.3334 10.0003C18.3334 5.40033 14.6 1.66699 10 1.66699ZM10 4.16699C11.3834 4.16699 12.5 5.28366 12.5 6.66699C12.5 8.05033 11.3834 9.16699 10 9.16699C8.61669 9.16699 7.50002 8.05033 7.50002 6.66699C7.50002 5.28366 8.61669 4.16699 10 4.16699ZM10 16.0003C7.91669 16.0003 6.07502 14.9337 5.00002 13.317C5.02502 11.6587 8.33335 10.7503 10 10.7503C11.6584 10.7503 14.975 11.6587 15 13.317C13.925 14.9337 12.0834 16.0003 10 16.0003Z" fill="black" fill-opacity="0.87"/>
</svg>
