<svg width="527" height="377" viewBox="0 0 527 377" fill="none" xmlns="http://www.w3.org/2000/svg">
<path opacity="0.3" d="M651.99 162.345C682.943 211.118 699.271 267.936 698.997 325.918V622.785C699.002 624.178 698.578 625.538 697.785 626.675C696.992 627.813 695.868 628.672 694.571 629.132L568.055 674.617C567.049 674.975 565.973 675.085 564.918 674.935C563.862 674.785 562.857 674.381 561.987 673.757C561.117 673.132 560.408 672.306 559.919 671.346C559.43 670.387 559.175 669.322 559.176 668.243V587.834C559.186 586.576 558.847 585.34 558.198 584.267C557.55 583.194 556.617 582.327 555.506 581.764C554.395 581.201 553.15 580.966 551.914 581.084C550.677 581.202 549.498 581.669 548.51 582.432C522.967 602.704 494.376 618.691 463.829 629.78C427.268 643.814 388.515 651.078 349.418 651.226C249.467 651.226 166.811 619.886 101.451 557.205C36.0913 494.523 2.31814 417.428 0.131766 325.918C-1.61573 268.04 14.0532 210.992 45.059 162.345C76.3969 112.269 119.058 72.6543 173.042 43.5015C227.357 14.396 287.973 -0.549056 349.418 0.0154162C412.84 0.0154162 471.303 14.6548 524.807 43.9337C576.745 71.3853 620.615 112.23 651.99 162.345V162.345ZM200.105 188.005C158.688 226.359 138.54 272.33 139.659 325.918C141.135 379.938 162.065 425.909 202.451 463.831C242.837 501.753 291.825 520.723 349.418 520.741C407.703 520.741 457.59 501.564 499.077 463.21C540.565 424.856 560.58 379.092 559.122 325.918C558.003 271.898 537.25 225.828 496.864 187.708C456.479 149.588 407.33 130.519 349.418 130.501C291.079 130.501 241.308 149.669 200.105 188.005Z" fill="white" fill-opacity="0.2"/>
<path d="M234.784 288.096H232.432L226.72 271.2H229.672L233.68 283.824L237.76 271.176H239.848L243.928 283.824L247.936 271.2H250.84L245.104 288.096H242.776L238.792 275.592L234.784 288.096ZM256.01 280.248V288H253.418V271.2H256.01V277.776C257.162 276.528 258.602 275.904 260.33 275.904C261.722 275.904 262.794 276.336 263.546 277.2C264.314 278.064 264.698 279.264 264.698 280.8V288H262.106V281.376C262.106 280.24 261.834 279.448 261.29 279C260.746 278.552 260.098 278.328 259.346 278.328C258.706 278.328 258.074 278.512 257.45 278.88C256.826 279.232 256.346 279.688 256.01 280.248ZM279.225 285.984C279.481 285.984 279.713 285.928 279.921 285.816V287.784C279.569 288.04 279.065 288.168 278.409 288.168C277.065 288.168 276.241 287.608 275.937 286.488C274.865 287.704 273.417 288.312 271.593 288.312C270.329 288.312 269.273 287.96 268.425 287.256C267.593 286.568 267.177 285.6 267.177 284.352C267.177 283.104 267.633 282.144 268.545 281.472C269.441 280.784 270.561 280.44 271.905 280.44C273.329 280.44 274.585 280.744 275.673 281.352V280.704C275.673 278.992 274.521 278.136 272.217 278.136C270.873 278.136 269.633 278.488 268.497 279.192V276.912C269.665 276.24 271.097 275.904 272.793 275.904C274.457 275.904 275.777 276.304 276.753 277.104C277.745 277.888 278.241 278.992 278.241 280.416V284.808C278.241 285.176 278.329 285.464 278.505 285.672C278.697 285.88 278.937 285.984 279.225 285.984ZM275.673 284.664V283.224C274.681 282.664 273.633 282.384 272.529 282.384C271.665 282.384 270.985 282.544 270.489 282.864C270.009 283.184 269.769 283.632 269.769 284.208C269.769 284.816 269.993 285.28 270.441 285.6C270.905 285.92 271.529 286.08 272.312 286.08C272.953 286.08 273.577 285.952 274.185 285.696C274.793 285.424 275.289 285.08 275.673 284.664ZM283.47 284.784V278.496H280.95V276.216H283.47V272.784H286.062V276.216H289.782V278.496H286.062V284.04C286.062 284.696 286.214 285.176 286.518 285.48C286.822 285.784 287.286 285.936 287.91 285.936C288.534 285.936 289.126 285.792 289.686 285.504V287.736C289.126 288.12 288.254 288.312 287.07 288.312C285.95 288.312 285.07 288.008 284.43 287.4C283.79 286.792 283.47 285.92 283.47 284.784ZM291.625 282.096C291.625 280.32 292.185 278.848 293.305 277.68C294.441 276.496 295.897 275.904 297.673 275.904C298.889 275.904 299.921 276.224 300.769 276.864C302.433 278.048 303.265 279.824 303.265 282.192V282.864H294.241C294.401 283.856 294.873 284.632 295.657 285.192C296.457 285.752 297.465 286.032 298.681 286.032C300.025 286.032 301.289 285.68 302.473 284.976V287.16C301.385 287.928 299.937 288.312 298.129 288.312C296.321 288.312 294.777 287.736 293.497 286.584C292.249 285.432 291.625 283.936 291.625 282.096ZM294.265 280.896H300.649C300.617 280.16 300.337 279.512 299.809 278.952C299.265 278.376 298.513 278.088 297.553 278.088C296.641 278.088 295.881 278.36 295.273 278.904C294.681 279.432 294.345 280.096 294.265 280.896ZM312.464 288.096H310.112L304.832 276.216H307.688L311.36 284.736L314.984 276.216H317.744L312.464 288.096ZM319.024 282.096C319.024 280.32 319.584 278.848 320.704 277.68C321.84 276.496 323.296 275.904 325.072 275.904C326.288 275.904 327.32 276.224 328.168 276.864C329.832 278.048 330.664 279.824 330.664 282.192V282.864H321.64C321.8 283.856 322.272 284.632 323.056 285.192C323.856 285.752 324.864 286.032 326.08 286.032C327.424 286.032 328.688 285.68 329.872 284.976V287.16C328.784 287.928 327.336 288.312 325.528 288.312C323.72 288.312 322.176 287.736 320.896 286.584C319.648 285.432 319.024 283.936 319.024 282.096ZM321.664 280.896H328.048C328.016 280.16 327.736 279.512 327.208 278.952C326.664 278.376 325.912 278.088 324.952 278.088C324.04 278.088 323.28 278.36 322.672 278.904C322.08 279.432 321.744 280.096 321.664 280.896ZM336.19 288H333.598V276.216H336.19V278.256C336.59 277.568 337.19 277.008 337.99 276.576C338.79 276.128 339.638 275.904 340.534 275.904C340.646 275.904 340.726 275.912 340.774 275.928V278.52C340.486 278.488 340.246 278.472 340.054 278.472C339.174 278.472 338.382 278.696 337.678 279.144C336.974 279.592 336.478 280.136 336.19 280.776V288ZM350.571 292.92C349.595 292.92 348.883 292.792 348.435 292.536V290.256C348.947 290.512 349.515 290.64 350.139 290.64C350.795 290.64 351.347 290.4 351.795 289.92C352.259 289.44 352.723 288.656 353.187 287.568L348.027 276.216H350.907L354.459 284.52L357.891 276.216H360.699L355.059 289.272C354.003 291.704 352.507 292.92 350.571 292.92ZM368.347 286.032C369.435 286.032 370.355 285.656 371.107 284.904C371.843 284.168 372.211 283.232 372.211 282.096C372.211 280.976 371.843 280.048 371.107 279.312C370.355 278.56 369.435 278.184 368.347 278.184C367.243 278.184 366.315 278.56 365.563 279.312C364.827 280.048 364.459 280.976 364.459 282.096C364.459 283.232 364.827 284.168 365.563 284.904C366.315 285.656 367.243 286.032 368.347 286.032ZM368.347 288.312C366.459 288.312 364.907 287.712 363.691 286.512C362.475 285.312 361.867 283.84 361.867 282.096C361.867 280.368 362.475 278.904 363.691 277.704C364.907 276.504 366.459 275.904 368.347 275.904C370.203 275.904 371.747 276.504 372.979 277.704C374.195 278.904 374.803 280.368 374.803 282.096C374.803 283.824 374.195 285.296 372.979 286.512C371.747 287.712 370.203 288.312 368.347 288.312ZM386.133 283.968V276.216H388.725V288H386.133V286.44C384.981 287.688 383.541 288.312 381.812 288.312C380.421 288.312 379.341 287.88 378.573 287.016C377.821 286.152 377.445 284.952 377.445 283.416V276.216H380.037V282.84C380.037 284.872 380.957 285.888 382.797 285.888C383.437 285.888 384.069 285.712 384.693 285.36C385.317 284.992 385.797 284.528 386.133 283.968ZM403.821 288.096H401.589L397.485 276.216H400.125L402.885 284.232L405.621 276.168H407.757L410.541 284.232L413.277 276.216H415.893L411.765 288.096H409.509L406.653 279.96L403.821 288.096ZM429.482 285.984C429.738 285.984 429.97 285.928 430.178 285.816V287.784C429.826 288.04 429.322 288.168 428.666 288.168C427.322 288.168 426.498 287.608 426.194 286.488C425.122 287.704 423.674 288.312 421.85 288.312C420.586 288.312 419.53 287.96 418.682 287.256C417.85 286.568 417.434 285.6 417.434 284.352C417.434 283.104 417.89 282.144 418.802 281.472C419.698 280.784 420.818 280.44 422.162 280.44C423.586 280.44 424.842 280.744 425.93 281.352V280.704C425.93 278.992 424.778 278.136 422.474 278.136C421.13 278.136 419.89 278.488 418.754 279.192V276.912C419.922 276.24 421.354 275.904 423.05 275.904C424.714 275.904 426.034 276.304 427.01 277.104C428.002 277.888 428.498 278.992 428.498 280.416V284.808C428.498 285.176 428.586 285.464 428.762 285.672C428.954 285.88 429.194 285.984 429.482 285.984ZM425.93 284.664V283.224C424.938 282.664 423.89 282.384 422.786 282.384C421.922 282.384 421.242 282.544 420.746 282.864C420.266 283.184 420.026 283.632 420.026 284.208C420.026 284.816 420.25 285.28 420.698 285.6C421.162 285.92 421.786 286.08 422.57 286.08C423.21 286.08 423.834 285.952 424.442 285.696C425.05 285.424 425.546 285.08 425.93 284.664ZM435.331 280.248V288H432.739V276.216H435.331V277.776C436.483 276.528 437.923 275.904 439.651 275.904C441.043 275.904 442.115 276.336 442.867 277.2C443.635 278.064 444.019 279.264 444.019 280.8V288H441.427V281.376C441.427 279.344 440.507 278.328 438.667 278.328C438.027 278.328 437.395 278.512 436.771 278.88C436.147 279.232 435.667 279.688 435.331 280.248ZM448.705 284.784V278.496H446.185V276.216H448.705V272.784H451.297V276.216H455.017V278.496H451.297V284.04C451.297 284.696 451.449 285.176 451.753 285.48C452.057 285.784 452.521 285.936 453.145 285.936C453.769 285.936 454.361 285.792 454.921 285.504V287.736C454.361 288.12 453.489 288.312 452.305 288.312C451.185 288.312 450.305 288.008 449.665 287.4C449.025 286.792 448.705 285.92 448.705 284.784ZM467.912 278.64H466.448V271.2H467.816L470.072 274.248L472.304 271.2H473.72V278.64H472.232V273.504L470.456 275.808H469.712L467.912 273.48V278.64ZM462.8 278.64H461.312V272.496H458.984V271.2H465.2V272.496H462.8V278.64Z" fill="white"/>
</svg>
