<svg width="527" height="377" viewBox="0 0 527 377" fill="none" xmlns="http://www.w3.org/2000/svg">
<path opacity="0.3" d="M651.99 162.345C682.943 211.118 699.271 267.936 698.997 325.918V622.785C699.002 624.178 698.578 625.538 697.785 626.675C696.992 627.813 695.868 628.672 694.571 629.132L568.055 674.617C567.049 674.975 565.973 675.085 564.918 674.935C563.862 674.785 562.857 674.381 561.987 673.757C561.117 673.132 560.408 672.306 559.919 671.346C559.43 670.387 559.175 669.322 559.176 668.243V587.834C559.186 586.576 558.847 585.34 558.198 584.267C557.55 583.194 556.617 582.327 555.506 581.764C554.395 581.201 553.15 580.966 551.914 581.084C550.677 581.202 549.498 581.669 548.51 582.432C522.967 602.704 494.376 618.691 463.829 629.78C427.268 643.814 388.515 651.078 349.418 651.226C249.467 651.226 166.811 619.886 101.451 557.205C36.0913 494.523 2.31814 417.428 0.131766 325.918C-1.61573 268.04 14.0532 210.992 45.059 162.345C76.3969 112.269 119.058 72.6543 173.042 43.5015C227.357 14.396 287.973 -0.549056 349.418 0.0154162C412.84 0.0154162 471.303 14.6548 524.807 43.9337C576.745 71.3853 620.615 112.23 651.99 162.345V162.345ZM200.105 188.005C158.688 226.359 138.54 272.33 139.659 325.918C141.135 379.938 162.065 425.909 202.451 463.831C242.837 501.753 291.825 520.723 349.418 520.741C407.703 520.741 457.59 501.564 499.077 463.21C540.565 424.856 560.58 379.092 559.122 325.918C558.003 271.898 537.25 225.828 496.864 187.708C456.479 149.588 407.33 130.519 349.418 130.501C291.079 130.501 241.308 149.669 200.105 188.005Z" fill="white" fill-opacity="0.2"/>
</svg>
