<svg width="24" height="25" viewBox="0 0 24 25" fill="none" xmlns="http://www.w3.org/2000/svg">
<path d="M11.1501 3.89998L7.43012 9.97998C7.02012 10.64 7.50012 11.5 8.28012 11.5H15.7101C16.4901 11.5 16.9701 10.64 16.5601 9.97998L12.8501 3.89998C12.4601 3.25998 11.5401 3.25998 11.1501 3.89998Z" fill="white" fill-opacity="0.81"/>
<path d="M17.5 22.5C19.9853 22.5 22 20.4853 22 18C22 15.5147 19.9853 13.5 17.5 13.5C15.0147 13.5 13 15.5147 13 18C13 20.4853 15.0147 22.5 17.5 22.5Z" fill="white" fill-opacity="0.81"/>
<path d="M4 22H10C10.55 22 11 21.55 11 21V15C11 14.45 10.55 14 10 14H4C3.45 14 3 14.45 3 15V21C3 21.55 3.45 22 4 22Z" fill="white" fill-opacity="0.81"/>
</svg>
