<svg width="16" height="16" viewBox="0 0 16 16" fill="none" xmlns="http://www.w3.org/2000/svg">
<path d="M15.6743 8.65831C16.0039 8.28135 16.0039 7.71865 15.6743 7.34169L14.7024 6.2304C14.5221 6.02422 14.4342 5.75309 14.4594 5.48034L14.5946 4.01277C14.6406 3.51327 14.3095 3.05697 13.8203 2.94586L12.3878 2.62048C12.1195 2.55954 11.8882 2.39075 11.7483 2.15386L10.9973 0.882397C10.7416 0.449319 10.2039 0.27362 9.74173 0.47208L8.39457 1.05057C8.14265 1.15875 7.85735 1.15875 7.60543 1.05057L6.25715 0.4716C5.79546 0.273347 5.25836 0.448459 5.00224 0.880737L4.25259 2.14602C4.11213 2.3831 3.88007 2.5517 3.61119 2.61203L2.18227 2.93265C1.69194 3.04267 1.35941 3.49948 1.4054 3.9999L1.54086 5.47402C1.56586 5.74608 1.47845 6.01653 1.29896 6.2225L0.323536 7.34184C-0.00502789 7.71888 -0.00453071 8.28068 0.3247 8.65714L1.2977 9.76971C1.47796 9.97583 1.56582 10.2468 1.54076 10.5195L1.40518 11.9949C1.35929 12.4943 1.69042 12.9505 2.17948 13.0616L3.61296 13.3872C3.88079 13.448 4.1118 13.6163 4.2518 13.8526L5.00112 15.1174C5.25772 15.5505 5.79625 15.7253 6.25831 15.5255L7.6045 14.9435C7.85695 14.8343 8.1432 14.834 8.39592 14.9425L9.74285 15.5209C10.2045 15.7192 10.7416 15.544 10.9978 15.1118L11.7482 13.8451C11.8882 13.6088 12.1192 13.4405 12.387 13.3797L13.8203 13.0541C14.3095 12.943 14.6406 12.4867 14.5946 11.9872L14.4594 10.5197C14.4342 10.2469 14.5221 9.97578 14.7024 9.7696L15.6743 8.65831ZM6.035 11.0075L4.25 9.2075C3.9575 8.915 3.9575 8.4425 4.25 8.15L4.3025 8.0975C4.595 7.805 5.075 7.805 5.3675 8.0975L5.86721 8.60032C6.25765 8.99318 6.89303 8.99385 7.2843 8.60182L10.4375 5.4425C10.73 5.15 11.21 5.15 11.5025 5.4425L11.555 5.495C11.8475 5.7875 11.8475 6.26 11.555 6.5525L7.115 11.0075C6.8075 11.3 6.335 11.3 6.035 11.0075Z" fill="#66CF7D"/>
</svg>
