<svg width="26" height="26" viewBox="0 0 26 26" fill="none" xmlns="http://www.w3.org/2000/svg">
<path fill-rule="evenodd" clip-rule="evenodd" d="M12.8 25.6C16.1948 25.6 19.4505 24.2514 21.851 21.851C24.2514 19.4505 25.6 16.1948 25.6 12.8C25.6 9.40523 24.2514 6.1495 21.851 3.74903C19.4505 1.34857 16.1948 0 12.8 0C9.40523 0 6.1495 1.34857 3.74903 3.74903C1.34857 6.1495 0 9.40523 0 12.8C0 16.1948 1.34857 19.4505 3.74903 21.851C6.1495 24.2514 9.40523 25.6 12.8 25.6ZM18.7312 10.7312C19.0227 10.4294 19.1839 10.0253 19.1803 9.60576C19.1766 9.18624 19.0084 8.78494 18.7117 8.48829C18.4151 8.19164 18.0138 8.02337 17.5942 8.01972C17.1747 8.01608 16.7706 8.17735 16.4688 8.4688L11.2 13.7376L9.1312 11.6688C8.82944 11.3773 8.42527 11.2161 8.00576 11.2197C7.58624 11.2234 7.18494 11.3916 6.88829 11.6883C6.59164 11.9849 6.42337 12.3862 6.41972 12.8058C6.41608 13.2253 6.57735 13.6294 6.8688 13.9312L10.0688 17.1312C10.3688 17.4312 10.7757 17.5997 11.2 17.5997C11.6243 17.5997 12.0312 17.4312 12.3312 17.1312L18.7312 10.7312Z" fill="#F0874A"/>
</svg>
