<svg width="20" height="19" viewBox="0 0 20 19" fill="none" xmlns="http://www.w3.org/2000/svg">
<path d="M19 9.72C19 4.23 14.74 0.5 10 0.5C5.31 0.5 1 4.15 1 9.78C0.4 10.12 0 10.76 0 11.5V13.5C0 14.6 0.9 15.5 2 15.5C2.55 15.5 3 15.05 3 14.5V9.69C3 5.86 5.95 2.51 9.78 2.4C13.74 2.28 17 5.46 17 9.4V16.5H10C9.45 16.5 9 16.95 9 17.5C9 18.05 9.45 18.5 10 18.5H17C18.1 18.5 19 17.6 19 16.5V15.28C19.59 14.97 20 14.36 20 13.64V11.34C20 10.64 19.59 10.03 19 9.72Z" fill="white" fill-opacity="0.81"/>
<path d="M7 11.5C7.55228 11.5 8 11.0523 8 10.5C8 9.94772 7.55228 9.5 7 9.5C6.44772 9.5 6 9.94772 6 10.5C6 11.0523 6.44772 11.5 7 11.5Z" fill="white" fill-opacity="0.81"/>
<path d="M13 11.5C13.5523 11.5 14 11.0523 14 10.5C14 9.94772 13.5523 9.5 13 9.5C12.4477 9.5 12 9.94772 12 10.5C12 11.0523 12.4477 11.5 13 11.5Z" fill="white" fill-opacity="0.81"/>
<path d="M15.9995 8.53C15.5195 5.68 13.0395 3.5 10.0495 3.5C7.01948 3.5 3.75948 6.01 4.01948 9.95C6.48948 8.94 8.34948 6.74 8.87948 4.06C10.1895 6.69 12.8795 8.5 15.9995 8.53Z" fill="white" fill-opacity="0.81"/>
</svg>
