<svg width="20" height="19" viewBox="0 0 20 19" fill="none" xmlns="http://www.w3.org/2000/svg">
<path d="M18 0.5H2C0.89 0.5 0.00999999 1.39 0.00999999 2.5L0 14.5C0 15.61 0.89 16.5 2 16.5H6C6.55 16.5 7 16.05 7 15.5C7 14.95 6.55 14.5 6 14.5H2V8.5H20V2.5C20 1.4 19.1 0.5 18 0.5ZM18 4.5H2V2.5H18V4.5ZM12.93 15.67L10.81 13.55C10.42 13.16 9.79 13.16 9.4 13.55C9.01 13.94 9.01 14.57 9.4 14.96L12.23 17.79C12.62 18.18 13.25 18.18 13.64 17.79L19.3 12.13C19.69 11.74 19.69 11.11 19.3 10.72C18.91 10.33 18.28 10.33 17.89 10.72L12.93 15.67Z" fill="white" fill-opacity="0.81"/>
</svg>
