<svg width="18" height="18" viewBox="0 0 18 18" fill="none" xmlns="http://www.w3.org/2000/svg">
<path d="M9 1.5C4.86 1.5 1.5 4.86 1.5 9C1.5 13.14 4.86 16.5 9 16.5C13.14 16.5 16.5 13.14 16.5 9C16.5 4.86 13.14 1.5 9 1.5ZM9 15C5.6925 15 3 12.3075 3 9C3 5.6925 5.6925 3 9 3C12.3075 3 15 5.6925 15 9C15 12.3075 12.3075 15 9 15ZM8.25 12H9.75V13.5H8.25V12ZM9.4575 4.53C7.9125 4.305 6.5475 5.2575 6.135 6.6225C6 7.0575 6.33 7.5 6.7875 7.5H6.9375C7.245 7.5 7.4925 7.2825 7.5975 6.9975C7.8375 6.33 8.55 5.8725 9.3225 6.0375C10.035 6.1875 10.56 6.885 10.5 7.6125C10.425 8.6175 9.285 8.835 8.6625 9.7725C8.6625 9.78 8.655 9.78 8.655 9.7875C8.6475 9.8025 8.64 9.81 8.6325 9.825C8.565 9.9375 8.4975 10.065 8.445 10.2C8.4375 10.2225 8.4225 10.2375 8.415 10.26C8.4075 10.275 8.4075 10.29 8.4 10.3125C8.31 10.5675 8.25 10.875 8.25 11.25H9.75C9.75 10.935 9.8325 10.6725 9.96 10.4475C9.975 10.425 9.9825 10.4025 9.9975 10.38C10.0575 10.275 10.1325 10.1775 10.2075 10.0875C10.215 10.08 10.2225 10.065 10.23 10.0575C10.305 9.9675 10.3875 9.885 10.4775 9.8025C11.1975 9.12 12.1725 8.565 11.97 7.1325C11.79 5.8275 10.7625 4.725 9.4575 4.53Z" fill="#C7C7C7"/>
</svg>
