<svg width="18" height="18" viewBox="0 0 18 18" fill="none" xmlns="http://www.w3.org/2000/svg">
<path d="M1.5 15.75H9C9.4125 15.75 9.75 16.0875 9.75 16.5C9.75 16.9125 9.4125 17.25 9 17.25H1.5C1.0875 17.25 0.75 16.9125 0.75 16.5C0.75 16.0875 1.0875 15.75 1.5 15.75ZM3.93 6.05251L6.0525 3.93001L15.6 13.4775C16.185 14.0625 16.185 15.015 15.6 15.6C15.015 16.185 14.0625 16.185 13.4775 15.6L3.93 6.05251ZM10.2975 1.80751L12.42 3.93001C13.005 4.51501 13.005 5.46751 12.42 6.05251L11.355 7.11751L7.1175 2.87251L8.175 1.81501C8.76 1.22251 9.7125 1.22251 10.2975 1.80751ZM2.8725 7.11001L7.1175 11.355L6.06 12.4125C5.475 12.9975 4.5225 12.9975 3.9375 12.4125L1.815 10.29C1.23 9.70501 1.23 8.75251 1.815 8.16751L2.8725 7.11001Z" fill="#C7C7C7"/>
</svg>
