<svg width="24" height="25" viewBox="0 0 24 25" fill="none" xmlns="http://www.w3.org/2000/svg">
<path d="M19.4599 10.5C19.3613 10.6458 19.3029 10.815 19.2906 10.9906C19.2783 11.1662 19.3126 11.3419 19.3899 11.5C19.6381 12.0793 19.8128 12.6873 19.9099 13.31C20.1674 14.9201 19.9266 16.5705 19.2199 18.04C19.1341 18.2012 19.0058 18.3358 18.8489 18.4292C18.692 18.5227 18.5125 18.5713 18.3299 18.57H5.67994C5.49631 18.5704 5.31613 18.5202 5.15913 18.4249C5.00214 18.3297 4.87441 18.1931 4.78994 18.03C4.14982 16.7314 3.87408 15.2835 3.99213 13.8406C4.11017 12.3976 4.61756 11.0138 5.46022 9.8365C6.30288 8.65924 7.44922 7.73271 8.77702 7.1557C10.1048 6.57868 11.5643 6.3728 12.9999 6.56C13.7263 6.64538 14.4368 6.83395 15.1099 7.12C15.268 7.19738 15.4438 7.23165 15.6193 7.21936C15.7949 7.20707 15.9642 7.14865 16.1099 7.05C16.2618 6.94995 16.3835 6.81036 16.462 6.64628C16.5404 6.48219 16.5727 6.29982 16.5552 6.11879C16.5377 5.93776 16.4712 5.76492 16.3628 5.61888C16.2543 5.47285 16.1082 5.35914 15.9399 5.29C14.0081 4.46166 11.8644 4.26309 9.81335 4.7225C7.76226 5.18191 5.90808 6.27594 4.5142 7.84919C3.12031 9.42243 2.25759 11.3949 2.04859 13.4864C1.83959 15.5779 2.29493 17.682 3.34994 19.5C3.52445 19.8023 3.77503 20.0536 4.07677 20.2291C4.37852 20.4045 4.72092 20.4979 5.06994 20.5H18.9199C19.2724 20.5014 19.6189 20.4097 19.9244 20.234C20.23 20.0584 20.4837 19.8052 20.6599 19.5C21.4323 18.1614 21.884 16.6621 21.9794 15.1196C22.0748 13.5772 21.8114 12.0336 21.2099 10.61C21.1338 10.4478 21.0154 10.309 20.8672 10.2082C20.719 10.1074 20.5464 10.0483 20.3675 10.037C20.1886 10.0258 20.01 10.0628 19.8503 10.1443C19.6907 10.2257 19.5558 10.3486 19.4599 10.5Z" fill="white" fill-opacity="0.81"/>
<path d="M10.59 13.09C10.2147 13.4653 10.0039 13.9743 10.0039 14.505C10.0039 14.7678 10.0557 15.028 10.1562 15.2708C10.2568 15.5136 10.4042 15.7342 10.59 15.92C10.7758 16.1058 10.9964 16.2532 11.2392 16.3538C11.482 16.4543 11.7422 16.5061 12.005 16.5061C12.5357 16.5061 13.0447 16.2953 13.42 15.92L19.08 7.42999L10.59 13.09Z" fill="white" fill-opacity="0.81"/>
</svg>
