<svg width="14" height="14" viewBox="0 0 14 14" fill="none" xmlns="http://www.w3.org/2000/svg">
<path d="M1.75 1.75H6.25C6.6625 1.75 7 1.4125 7 1C7 0.5875 6.6625 0.25 6.25 0.25H1.75C0.925 0.25 0.25 0.925 0.25 1.75V12.25C0.25 13.075 0.925 13.75 1.75 13.75H6.25C6.6625 13.75 7 13.4125 7 13C7 12.5875 6.6625 12.25 6.25 12.25H1.75V1.75Z" fill="#DE5770"/>
<path d="M13.4875 6.73752L11.395 4.64502C11.155 4.40502 10.75 4.57002 10.75 4.90752V6.25002H5.5C5.0875 6.25002 4.75 6.58752 4.75 7.00002C4.75 7.41252 5.0875 7.75002 5.5 7.75002H10.75V9.09252C10.75 9.43002 11.155 9.59502 11.3875 9.35502L13.48 7.26252C13.63 7.12002 13.63 6.88002 13.4875 6.73752Z" fill="#DE5770"/>
</svg>
