<svg width="16" height="17" viewBox="0 0 16 17" fill="none" xmlns="http://www.w3.org/2000/svg">
<path d="M3.5 0.5C1.57 0.5 0 2.07 0 4C0 5.93 1.57 7.5 3.5 7.5C5.43 7.5 7 5.93 7 4C7 2.07 5.43 0.5 3.5 0.5ZM3.5 5.5C2.67 5.5 2 4.83 2 4C2 3.17 2.67 2.5 3.5 2.5C4.33 2.5 5 3.17 5 4C5 4.83 4.33 5.5 3.5 5.5ZM12.5 9.5C10.57 9.5 9 11.07 9 13C9 14.93 10.57 16.5 12.5 16.5C14.43 16.5 16 14.93 16 13C16 11.07 14.43 9.5 12.5 9.5ZM12.5 14.5C11.67 14.5 11 13.83 11 13C11 12.17 11.67 11.5 12.5 11.5C13.33 11.5 14 12.17 14 13C14 13.83 13.33 14.5 12.5 14.5ZM15.29 1.21C15.68 1.6 15.68 2.23 15.29 2.62L2.12 15.79C1.73 16.18 1.1 16.18 0.71 15.79C0.32 15.4 0.32 14.77 0.71 14.38L13.88 1.21C14.27 0.82 14.9 0.82 15.29 1.21Z" fill="white"/>
</svg>
