<svg width="21" height="19" viewBox="0 0 21 19" fill="none" xmlns="http://www.w3.org/2000/svg">
<path d="M20.2325 6.39L19.1825 2.02C18.9625 1.12 18.1825 0.5 17.2725 0.5H3.38253C2.48253 0.5 1.69253 1.13 1.48253 2.02L0.432526 6.39C0.192526 7.41 0.412526 8.45 1.05253 9.27C1.13253 9.38 1.24253 9.46 1.33253 9.56V16.5C1.33253 17.6 2.23253 18.5 3.33253 18.5H17.3325C18.4325 18.5 19.3325 17.6 19.3325 16.5V9.56C19.4225 9.47 19.5325 9.38 19.6125 9.28C20.2525 8.46 20.4825 7.41 20.2325 6.39ZM17.2425 2.49L18.2925 6.86C18.3925 7.28 18.3025 7.7 18.0425 8.03C17.9025 8.21 17.6025 8.5 17.1025 8.5C16.4925 8.5 15.9625 8.01 15.8925 7.36L15.3125 2.5L17.2425 2.49ZM11.3325 2.5H13.2925L13.8325 7.02C13.8825 7.41 13.7625 7.8 13.5025 8.09C13.2825 8.35 12.9625 8.5 12.5525 8.5C11.8825 8.5 11.3325 7.91 11.3325 7.19V2.5ZM6.82253 7.02L7.37253 2.5H9.33253V7.19C9.33253 7.91 8.78253 8.5 8.04253 8.5C7.70253 8.5 7.39253 8.35 7.15253 8.09C6.90253 7.8 6.78253 7.41 6.82253 7.02ZM2.37253 6.86L3.38253 2.5H5.35253L4.77253 7.36C4.69253 8.01 4.17253 8.5 3.56253 8.5C3.07253 8.5 2.76253 8.21 2.63253 8.03C2.36253 7.71 2.27253 7.28 2.37253 6.86ZM3.33253 16.5V10.47C3.41253 10.48 3.48253 10.5 3.56253 10.5C4.43253 10.5 5.22253 10.14 5.80253 9.55C6.40253 10.15 7.20253 10.5 8.11253 10.5C8.98253 10.5 9.76253 10.14 10.3425 9.57C10.9325 10.14 11.7325 10.5 12.6325 10.5C13.4725 10.5 14.2725 10.15 14.8725 9.55C15.4525 10.14 16.2425 10.5 17.1125 10.5C17.1925 10.5 17.2625 10.48 17.3425 10.47V16.5H3.33253Z" fill="white" fill-opacity="0.81"/>
</svg>
