<svg width="24" height="25" viewBox="0 0 24 25" fill="none" xmlns="http://www.w3.org/2000/svg">
<path d="M21 2.71001C20.87 2.71001 20.74 2.76001 20.65 2.86001L19.86 3.65001C19.66 3.85001 19.35 3.85001 19.15 3.65001L18.36 2.86001C18.16 2.66001 17.85 2.66001 17.65 2.86001L16.86 3.65001C16.66 3.85001 16.35 3.85001 16.15 3.65001L15.36 2.86001C15.16 2.66001 14.85 2.66001 14.65 2.86001L13.86 3.65001C13.66 3.85001 13.35 3.85001 13.15 3.65001L12.36 2.86001C12.16 2.66001 11.85 2.66001 11.65 2.86001L10.86 3.65001C10.66 3.85001 10.35 3.85001 10.15 3.65001L9.35 2.85001C9.15 2.65001 8.84 2.65001 8.64 2.85001L7.85 3.65001C7.65 3.85001 7.34 3.85001 7.14 3.65001L6.35 2.85001C6.15 2.65001 5.84 2.65001 5.64 2.85001L4.85 3.65001C4.65 3.85001 4.34 3.85001 4.14 3.65001L3.35 2.85001C3.26 2.76001 3.13 2.71001 3 2.71001V22.3C3.13 22.3 3.26 22.25 3.35 22.15L4.14 21.36C4.34 21.16 4.65 21.16 4.85 21.36L5.64 22.15C5.84 22.35 6.15 22.35 6.35 22.15L7.14 21.36C7.34 21.16 7.65 21.16 7.85 21.36L8.64 22.15C8.84 22.35 9.15 22.35 9.35 22.15L10.14 21.36C10.34 21.16 10.65 21.16 10.85 21.36L11.64 22.15C11.84 22.35 12.15 22.35 12.35 22.15L13.14 21.36C13.34 21.16 13.65 21.16 13.85 21.36L14.64 22.15C14.84 22.35 15.15 22.35 15.35 22.15L16.14 21.36C16.34 21.16 16.65 21.16 16.85 21.36L17.64 22.15C17.84 22.35 18.15 22.35 18.35 22.15L19.14 21.36C19.34 21.16 19.65 21.16 19.85 21.36L20.64 22.15C20.74 22.25 20.87 22.3 20.99 22.3V2.71001H21ZM17 17.5H7C6.45 17.5 6 17.05 6 16.5C6 15.95 6.45 15.5 7 15.5H17C17.55 15.5 18 15.95 18 16.5C18 17.05 17.55 17.5 17 17.5ZM17 13.5H7C6.45 13.5 6 13.05 6 12.5C6 11.95 6.45 11.5 7 11.5H17C17.55 11.5 18 11.95 18 12.5C18 13.05 17.55 13.5 17 13.5ZM17 9.50001H7C6.45 9.50001 6 9.05001 6 8.50001C6 7.95001 6.45 7.50001 7 7.50001H17C17.55 7.50001 18 7.95001 18 8.50001C18 9.05001 17.55 9.50001 17 9.50001Z" fill="white" fill-opacity="0.81"/>
</svg>
