<svg width="24" height="25" viewBox="0 0 24 25" fill="none" xmlns="http://www.w3.org/2000/svg">
<path d="M10 16.5V8.5C10 7.4 10.89 6.5 12 6.5H21V5.5C21 4.4 20.1 3.5 19 3.5H5C3.89 3.5 3 4.4 3 5.5V19.5C3 20.6 3.89 21.5 5 21.5H19C20.1 21.5 21 20.6 21 19.5V18.5H12C10.89 18.5 10 17.6 10 16.5ZM13 8.5C12.45 8.5 12 8.95 12 9.5V15.5C12 16.05 12.45 16.5 13 16.5H22V8.5H13ZM16 14C15.17 14 14.5 13.33 14.5 12.5C14.5 11.67 15.17 11 16 11C16.83 11 17.5 11.67 17.5 12.5C17.5 13.33 16.83 14 16 14Z" fill="white" fill-opacity="0.81"/>
</svg>
