<svg width="21" height="18" viewBox="0 0 21 18" fill="none" xmlns="http://www.w3.org/2000/svg">
<path d="M8.8 4.7C8.41 5.09 8.41 5.71 8.8 6.1L10.7 8H1.5C0.95 8 0.5 8.45 0.5 9C0.5 9.55 0.95 10 1.5 10H10.7L8.8 11.9C8.41 12.29 8.41 12.91 8.8 13.3C9.19 13.69 9.81 13.69 10.2 13.3L13.79 9.71C14.18 9.32 14.18 8.69 13.79 8.3L10.2 4.7C9.81 4.31 9.19 4.31 8.8 4.7ZM18.5 16H11.5C10.95 16 10.5 16.45 10.5 17C10.5 17.55 10.95 18 11.5 18H18.5C19.6 18 20.5 17.1 20.5 16V2C20.5 0.9 19.6 0 18.5 0H11.5C10.95 0 10.5 0.45 10.5 1C10.5 1.55 10.95 2 11.5 2H18.5V16Z" fill="white"/>
</svg>
