<svg width="38" height="38" viewBox="0 0 38 38" fill="none" xmlns="http://www.w3.org/2000/svg">
<path d="M19.0001 3.16669C10.2601 3.16669 3.16675 10.26 3.16675 19C3.16675 27.74 10.2601 34.8334 19.0001 34.8334C27.7401 34.8334 34.8334 27.74 34.8334 19C34.8334 10.26 27.7401 3.16669 19.0001 3.16669ZM14.7092 25.7925L9.02508 20.1084C8.40758 19.4909 8.40758 18.4934 9.02508 17.8759C9.64258 17.2584 10.6401 17.2584 11.2576 17.8759L15.8334 22.4359L26.7267 11.5425C27.3442 10.925 28.3418 10.925 28.9593 11.5425C29.5768 12.16 29.5768 13.1575 28.9593 13.775L16.9417 25.7925C16.3401 26.41 15.3267 26.41 14.7092 25.7925Z" fill="#66CF7D"/>
</svg>
