<svg width="24" height="25" viewBox="0 0 24 25" fill="none" xmlns="http://www.w3.org/2000/svg">
<path d="M23 8.5V18.5C23 19.6 22.1 20.5 21 20.5H5C4.45 20.5 4 20.05 4 19.5C4 18.95 4.45 18.5 5 18.5H21V8.5C21 7.95 21.45 7.5 22 7.5C22.55 7.5 23 7.95 23 8.5ZM4 16.5C2.34 16.5 1 15.16 1 13.5V7.5C1 5.84 2.34 4.5 4 4.5H16C17.66 4.5 19 5.84 19 7.5V14.5C19 15.6 18.1 16.5 17 16.5H4ZM7 10.5C7 12.16 8.34 13.5 10 13.5C11.66 13.5 13 12.16 13 10.5C13 8.84 11.66 7.5 10 7.5C8.34 7.5 7 8.84 7 10.5Z" fill="white" fill-opacity="0.81"/>
</svg>
