<svg width="22" height="18" viewBox="0 0 22 18" fill="none" xmlns="http://www.w3.org/2000/svg">
<path d="M21.1619 2.65593C20.3985 2.99362 19.5889 3.2154 18.7599 3.31393C19.6337 2.79136 20.2876 1.96894 20.5999 0.999927C19.7799 1.48793 18.8809 1.82993 17.9439 2.01493C17.3145 1.34151 16.4803 0.89489 15.5709 0.744511C14.6615 0.594133 13.7279 0.748418 12.9152 1.18338C12.1025 1.61834 11.4563 2.30961 11.077 3.14972C10.6978 3.98983 10.6067 4.93171 10.8179 5.82893C9.15504 5.74558 7.52826 5.31345 6.04322 4.56059C4.55817 3.80773 3.24806 2.75097 2.19793 1.45893C1.82622 2.09738 1.63089 2.82315 1.63193 3.56193C1.63193 5.01193 2.36993 6.29293 3.49193 7.04293C2.82794 7.02202 2.17856 6.84271 1.59793 6.51993V6.57193C1.59813 7.53763 1.9323 8.47354 2.54378 9.22099C3.15526 9.96843 4.00641 10.4814 4.95293 10.6729C4.33654 10.84 3.69024 10.8646 3.06293 10.7449C3.3298 11.5762 3.84994 12.3031 4.55052 12.824C5.25111 13.3449 6.09706 13.6337 6.96993 13.6499C6.10241 14.3313 5.10911 14.8349 4.04681 15.1321C2.98451 15.4293 1.87406 15.5142 0.778931 15.3819C2.69063 16.6114 4.91603 17.264 7.18893 17.2619C14.8819 17.2619 19.0889 10.8889 19.0889 5.36193C19.0889 5.18193 19.0839 4.99993 19.0759 4.82193C19.8948 4.23009 20.6015 3.49695 21.1629 2.65693L21.1619 2.65593Z" fill="white" fill-opacity="0.81"/>
</svg>
