<svg width="24" height="25" viewBox="0 0 24 25" fill="none" xmlns="http://www.w3.org/2000/svg">
<path d="M9 12.5C11.2091 12.5 13 10.7091 13 8.5C13 6.29086 11.2091 4.5 9 4.5C6.79086 4.5 5 6.29086 5 8.5C5 10.7091 6.79086 12.5 9 12.5Z" fill="white" fill-opacity="0.81"/>
<path d="M9 14.5C6.33 14.5 1 15.84 1 18.5V19.5C1 20.05 1.45 20.5 2 20.5H16C16.55 20.5 17 20.05 17 19.5V18.5C17 15.84 11.67 14.5 9 14.5Z" fill="white" fill-opacity="0.81"/>
<path d="M20 10.5V7.5H18V10.5H15V12.5H18V15.5H20V12.5H23V10.5H20Z" fill="white" fill-opacity="0.81"/>
</svg>
