<svg width="18" height="18" viewBox="0 0 18 18" fill="none" xmlns="http://www.w3.org/2000/svg">
<path d="M16.6743 9.65831C17.0039 9.28135 17.0039 8.71865 16.6743 8.34169L15.7024 7.2304C15.5221 7.02422 15.4342 6.75309 15.4594 6.48034L15.5946 5.01277C15.6406 4.51327 15.3095 4.05697 14.8203 3.94586L13.3878 3.62048C13.1195 3.55954 12.8882 3.39075 12.7483 3.15386L11.9973 1.8824C11.7416 1.44932 11.2039 1.27362 10.7417 1.47208L9.39457 2.05057C9.14265 2.15875 8.85735 2.15875 8.60543 2.05057L7.25715 1.4716C6.79546 1.27335 6.25836 1.44846 6.00224 1.88074L5.25259 3.14602C5.11213 3.3831 4.88007 3.5517 4.61119 3.61203L3.18227 3.93265C2.69194 4.04267 2.35941 4.49948 2.4054 4.9999L2.54086 6.47402C2.56586 6.74608 2.47845 7.01653 2.29896 7.2225L1.32354 8.34184C0.994972 8.71888 0.995469 9.28068 1.3247 9.65714L2.2977 10.7697C2.47796 10.9758 2.56582 11.2468 2.54076 11.5195L2.40518 12.9949C2.35929 13.4943 2.69042 13.9505 3.17948 14.0616L4.61296 14.3872C4.88079 14.448 5.1118 14.6163 5.2518 14.8526L6.00112 16.1174C6.25772 16.5505 6.79625 16.7253 7.25831 16.5255L8.6045 15.9435C8.85695 15.8343 9.1432 15.834 9.39592 15.9425L10.7428 16.5209C11.2045 16.7192 11.7416 16.544 11.9978 16.1118L12.7482 14.8451C12.8882 14.6088 13.1192 14.4405 13.387 14.3797L14.8203 14.0541C15.3095 13.943 15.6406 13.4867 15.5946 12.9872L15.4594 11.5197C15.4342 11.2469 15.5221 10.9758 15.7024 10.7696L16.6743 9.65831ZM7.035 12.0075L5.25 10.2075C4.9575 9.915 4.9575 9.4425 5.25 9.15L5.3025 9.0975C5.595 8.805 6.075 8.805 6.3675 9.0975L6.86721 9.60032C7.25765 9.99318 7.89303 9.99385 8.2843 9.60182L11.4375 6.4425C11.73 6.15 12.21 6.15 12.5025 6.4425L12.555 6.495C12.8475 6.7875 12.8475 7.26 12.555 7.5525L8.115 12.0075C7.8075 12.3 7.335 12.3 7.035 12.0075Z" fill="#66CF7D"/>
</svg>
