<svg width="18" height="18" viewBox="0 0 18 18" fill="none" xmlns="http://www.w3.org/2000/svg">
<path d="M14.25 2.25H3.75C2.9175 2.25 2.25 2.925 2.25 3.75V14.25C2.25 15.075 2.9175 15.75 3.75 15.75H14.25C15.075 15.75 15.75 15.075 15.75 14.25V3.75C15.75 2.925 15.0825 2.25 14.25 2.25ZM14.25 14.25H3.75V5.25H14.25V14.25ZM12 9H6C5.5875 9 5.25 8.6625 5.25 8.25C5.25 7.8375 5.5875 7.5 6 7.5H12C12.4125 7.5 12.75 7.8375 12.75 8.25C12.75 8.6625 12.4125 9 12 9ZM9 12H6C5.5875 12 5.25 11.6625 5.25 11.25C5.25 10.8375 5.5875 10.5 6 10.5H9C9.4125 10.5 9.75 10.8375 9.75 11.25C9.75 11.6625 9.4125 12 9 12Z" fill="#C7C7C7"/>
</svg>
