<svg width="18" height="18" viewBox="0 0 18 18" fill="none" xmlns="http://www.w3.org/2000/svg">
<path d="M8.3925 1.02L3.1425 3.3525C2.6025 3.5925 2.25 4.1325 2.25 4.725V8.25C2.25 12.4125 5.13 16.305 9 17.25C12.87 16.305 15.75 12.4125 15.75 8.25V4.725C15.75 4.1325 15.3975 3.5925 14.8575 3.3525L9.6075 1.02C9.225 0.8475 8.775 0.8475 8.3925 1.02ZM6.9675 12.2175L5.025 10.275C4.7325 9.9825 4.7325 9.51 5.025 9.2175C5.3175 8.925 5.79 8.925 6.0825 9.2175L7.5 10.6275L11.91 6.2175C12.2025 5.925 12.675 5.925 12.9675 6.2175C13.26 6.51 13.26 6.9825 12.9675 7.275L8.025 12.2175C7.74 12.51 7.26 12.51 6.9675 12.2175Z" fill="#C7C7C7"/>
</svg>
