<svg width="20" height="21" viewBox="0 0 20 21" fill="none" xmlns="http://www.w3.org/2000/svg">
<path d="M5.1151 10.3833L2.79844 12.7083C2.6401 12.875 2.6401 13.1333 2.79844 13.3L5.1151 15.625C5.37344 15.8917 5.82344 15.7 5.82344 15.3333V13.8333H10.8318C11.2901 13.8333 11.6651 13.4583 11.6651 13C11.6651 12.5417 11.2901 12.1667 10.8318 12.1667H5.82344V10.675C5.82344 10.3 5.37344 10.1167 5.1151 10.3833ZM17.2068 7.70835L14.8901 5.38335C14.6318 5.11668 14.1818 5.30835 14.1818 5.67501V7.16668H9.1651C8.70677 7.16668 8.33177 7.54168 8.33177 8.00001C8.33177 8.45835 8.70677 8.83335 9.1651 8.83335H14.1734V10.325C14.1734 10.7 14.6234 10.8833 14.8818 10.6167L17.1984 8.29168C17.3651 8.13335 17.3651 7.86668 17.2068 7.70835Z" fill="black" fill-opacity="0.87"/>
</svg>
