<svg width="18" height="18" viewBox="0 0 18 18" fill="none" xmlns="http://www.w3.org/2000/svg">
<path d="M8.99845 16.5C9.82345 16.5 10.4985 15.825 10.4985 15H7.49845C7.49845 15.825 8.16595 16.5 8.99845 16.5ZM13.4985 12V8.25C13.4985 5.9475 12.2685 4.02 10.1235 3.51V3C10.1235 2.3775 9.62095 1.875 8.99845 1.875C8.37595 1.875 7.87345 2.3775 7.87345 3V3.51C5.72095 4.02 4.49845 5.94 4.49845 8.25V12L3.53095 12.9675C3.05845 13.44 3.38845 14.25 4.05595 14.25H13.9335C14.601 14.25 14.9385 13.44 14.466 12.9675L13.4985 12Z" fill="#C7C7C7"/>
</svg>
