<svg width="19" height="19" viewBox="0 0 19 19" fill="none" xmlns="http://www.w3.org/2000/svg">
<path d="M17.3086 4.81626C18.1303 6.11296 18.5638 7.62358 18.5565 9.16513V17.0579C18.5566 17.0949 18.5454 17.1311 18.5243 17.1613C18.5033 17.1916 18.4734 17.2144 18.439 17.2266L15.0803 18.4359C15.0536 18.4455 15.0251 18.4484 14.9971 18.4444C14.969 18.4404 14.9424 18.4297 14.9193 18.4131C14.8962 18.3965 14.8773 18.3745 14.8644 18.349C14.8514 18.3235 14.8446 18.2952 14.8446 18.2665V16.1287C14.8449 16.0952 14.8359 16.0623 14.8187 16.0338C14.8015 16.0053 14.7767 15.9822 14.7472 15.9673C14.7177 15.9523 14.6847 15.946 14.6518 15.9492C14.619 15.9523 14.5877 15.9647 14.5615 15.985C13.8834 16.524 13.1244 16.949 12.3134 17.2439C11.3428 17.617 10.314 17.8101 9.27611 17.8141C6.62268 17.8141 4.4284 16.9808 2.69326 15.3143C0.958128 13.6478 0.0615403 11.5981 0.00349804 9.16513C-0.0428933 7.62634 0.373075 6.10961 1.1962 4.81626C2.02814 3.48488 3.16067 2.43165 4.59379 1.65657C6.03573 0.882744 7.64492 0.485402 9.27611 0.50041C10.9598 0.50041 12.5118 0.889626 13.9322 1.66806C15.311 2.39791 16.4757 3.48384 17.3086 4.81626ZM5.31224 5.49846C4.21274 6.51818 3.67786 7.7404 3.70759 9.16513C3.74675 10.6014 4.3024 11.8236 5.37453 12.8318C6.44666 13.84 7.74719 14.3444 9.27611 14.3449C10.8234 14.3449 12.1478 13.835 13.2492 12.8153C14.3506 11.7956 14.8819 10.5789 14.8432 9.16513C14.8135 7.72891 14.2626 6.50405 13.1904 5.49056C12.1183 4.47707 10.8135 3.97008 9.27611 3.9696C7.72737 3.9696 6.40608 4.47922 5.31224 5.49846Z" fill="#ED6E24"/>
</svg>
